<svg xmlns="http://www.w3.org/2000/svg" xmlns:xlink="http://www.w3.org/1999/xlink" version="1.1" id="_レイヤー_2" x="0px" y="0px" viewBox="0 0 856.27942 1029.92847" enable-background="new 0 0 856.27942 1029.92847" width="856px" height="1030px" class="lg:!max-h-[405px] isometric rectangleModalImage" role="img" aria-label="記録 アイソメトリック イラスト"><title>記録 アイソメトリック イラスト</title><g id="_レイヤー_2-2"><g><path fill="#11B1D4" d="M327.54611,652.49139L310.14023,17.9403c0-11.479,24.3851-21.6148,32.99429-16.6443l381.91724,220.49998&#10;&#9;&#9;&#9;c8.60931,4.97061,15.5885,18.30562,15.5885,29.78461v639.41077c0,11.47906-22.89069,27.41943-31.5,22.44891L343.13467,682.276&#10;&#9;&#9;&#9;c-8.60931-4.97064-15.58847-18.3056-15.58847-29.78461H327.54611z"/><path opacity="0.1" fill="#FFFFFF" d="M327.54611,652.49139L310.14023,17.9403&#10;&#9;&#9;&#9;c0-11.479,24.3851-21.6148,32.99429-16.6443l381.91724,220.49998c8.60931,4.97061,15.5885,18.30562,15.5885,29.78461v639.41077&#10;&#9;&#9;&#9;c0,11.47906-22.89069,27.41943-31.5,22.44891L343.13467,682.276c-8.60931-4.97064-15.58847-18.3056-15.58847-29.78461H327.54611z" enable-background="new"/><path fill="#4F5056" d="M308.90854,662.99139V23.5807c0-11.479,6.97919-16.7552,15.58847-11.7846l381.91718,220.49998&#10;&#9;&#9;&#9;c8.60938,4.97061,15.58856,18.3056,15.58856,29.78461v639.41077c0,11.47906-6.97919,16.75525-15.58856,11.78461L324.49701,692.776&#10;&#9;&#9;&#9;C315.88773,687.80542,308.90854,674.47046,308.90854,662.99139z"/><path fill="#FFFFFF" d="M705.11517,872.02722l-379.31912-219c-2.86981-1.65692-5.1962-6.10193-5.1962-9.92822V56.9731&#10;&#9;&#9;&#9;c0-3.8263,2.32639-5.5851,5.1962-3.9282l379.31912,219.00003c2.86981,1.65689,5.19623,6.10187,5.19623,9.92819v586.12598&#10;&#9;&#9;&#9;c0,3.82629-2.32642,5.58508-5.19623,3.92822V872.02722z"/><ellipse transform="matrix(0.86601 -0.50002 0.50002 0.86601 -1.71172 276.70428)" fill="#BFBFBF" cx="515.45392" cy="141.5461" rx="4.24259" ry="7.34838"/><ellipse transform="matrix(0.86601 -0.50002 0.50002 0.86601 -322.44119 362.99442)" fill="#BFBFBF" cx="516.10229" cy="783.15057" rx="9.54574" ry="16.53376"/><g><g><ellipse transform="matrix(0.86601 -0.50002 0.50002 0.86601 -67.56104 218.47462)" fill="#11B1D4" cx="373.87827" cy="235.30161" rx="12.72765" ry="22.04503"/><path fill="#FFFFFF" d="M371.58102,242.7941L371.58102,242.7941c-0.66132-0.38181-1.29581-1.05191-1.76337-1.86191&#10;&#9;&#9;&#9;&#9;&#9;l-5.69101-9.85759c-0.9743-1.68752-0.9743-3.5106,0-4.0724c0.9743-0.5625,2.5538,0.3495,3.52692,2.03621l3.92761,6.8026&#10;&#9;&#9;&#9;&#9;&#9;l8.5249-4.9209c0.97308-0.5632,2.55377,0.3495,3.52692,2.03621c0.9743,1.6868,0.9743,3.5106,0,4.0724l-10.28839,5.9397&#10;&#9;&#9;&#9;&#9;&#9;c-0.46768,0.26999-1.10223,0.2074-1.76337-0.17441L371.58102,242.7941z"/></g><path fill="#E4E4E4" d="M668.72278,410.02899l-268.57611-155.0625c-2.15222-1.2426-3.89709-4.26411-3.89709-6.74991&#10;&#9;&#9;&#9;&#9;c0-2.48581,1.74493-3.49239,3.89709-2.24991l268.57611,155.06253c2.15222,1.24258,3.89709,4.2641,3.89709,6.74991&#10;&#9;&#9;&#9;&#9;s-1.74487,3.4924-3.89709,2.24991V410.02899z"/></g><g><g><ellipse transform="matrix(0.86601 -0.50002 0.50002 0.86601 -92.31132 225.10675)" fill="#11B1D4" cx="373.8782" cy="284.80002" rx="12.72765" ry="22.04503"/><path fill="#FFFFFF" d="M371.58102,292.2926L371.58102,292.2926c-0.66132-0.38181-1.29581-1.05191-1.76337-1.86191&#10;&#9;&#9;&#9;&#9;&#9;l-5.69101-9.8576c-0.9743-1.6875-0.9743-3.51059,0-4.07239c0.9743-0.5625,2.5538,0.34952,3.52692,2.03622l3.92761,6.80258&#10;&#9;&#9;&#9;&#9;&#9;l8.5249-4.9209c0.97308-0.5632,2.55377,0.34949,3.52692,2.03619c0.9743,1.6868,0.9743,3.51062,0,4.07242l-10.28839,5.9397&#10;&#9;&#9;&#9;&#9;&#9;c-0.46768,0.26999-1.10223,0.2074-1.76337-0.17441L371.58102,292.2926z"/></g><path fill="#E4E4E4" d="M668.72278,459.52759l-268.57611-155.0625c-2.15222-1.24261-3.89709-4.2641-3.89709-6.74991&#10;&#9;&#9;&#9;&#9;c0-2.48578,1.74493-3.4924,3.89709-2.24991L668.72278,450.5278c2.15222,1.24258,3.89709,4.2641,3.89709,6.74991&#10;&#9;&#9;&#9;&#9;s-1.74487,3.4924-3.89709,2.24991V459.52759z"/></g><g><g><ellipse transform="matrix(0.86601 -0.50002 0.50002 0.86601 -117.06159 231.73883)" fill="#E4E4E4" cx="373.87808" cy="334.29837" rx="12.72765" ry="22.04503"/><path fill="#FFFFFF" d="M371.58102,341.7912L371.58102,341.7912c-0.66132-0.38184-1.29581-1.05191-1.76337-1.86194&#10;&#9;&#9;&#9;&#9;&#9;l-5.69101-9.85757c-0.9743-1.68753-0.9743-3.51059,0-4.07242c0.9743-0.56253,2.5538,0.34949,3.52692,2.03619l3.92761,6.80261&#10;&#9;&#9;&#9;&#9;&#9;l8.5249-4.9209c0.97308-0.5632,2.55377,0.34952,3.52692,2.03622c0.9743,1.68677,0.9743,3.51059,0,4.07242l-10.28839,5.9397&#10;&#9;&#9;&#9;&#9;&#9;c-0.46768,0.27002-1.10223,0.2074-1.76337-0.17441L371.58102,341.7912z"/></g><path fill="#E4E4E4" d="M668.72278,509.02612l-268.57611-155.0625c-2.15222-1.24261-3.89709-4.2641-3.89709-6.74991&#10;&#9;&#9;&#9;&#9;s1.74493-3.4924,3.89709-2.24991l268.57611,155.0625c2.15222,1.24261,3.89709,4.26413,3.89709,6.74994&#10;&#9;&#9;&#9;&#9;s-1.74487,3.49237-3.89709,2.24991V509.02612z"/></g><g><g><ellipse transform="matrix(0.86601 -0.50002 0.50002 0.86601 -141.81189 238.37091)" fill="#E4E4E4" cx="373.87796" cy="383.79681" rx="12.72765" ry="22.04503"/><path fill="#FFFFFF" d="M371.58102,391.2897L371.58102,391.2897c-0.66132-0.38181-1.29581-1.05191-1.76337-1.86191&#10;&#9;&#9;&#9;&#9;&#9;l-5.69101-9.8576c-0.9743-1.6875-0.9743-3.51059,0-4.07242c0.9743-0.5625,2.5538,0.34952,3.52692,2.03622l3.92761,6.80258&#10;&#9;&#9;&#9;&#9;&#9;l8.5249-4.92087c0.97308-0.5632,2.55377,0.34949,3.52692,2.03619c0.9743,1.6868,0.9743,3.51059,0,4.07242l-10.28839,5.93973&#10;&#9;&#9;&#9;&#9;&#9;c-0.46768,0.26999-1.10223,0.2074-1.76337-0.17441L371.58102,391.2897z"/></g><path fill="#E4E4E4" d="M668.72278,558.52472l-268.57611-155.0625c-2.15222-1.24261-3.89709-4.2641-3.89709-6.74991&#10;&#9;&#9;&#9;&#9;s1.74493-3.4924,3.89709-2.24991l268.57611,155.0625c2.15222,1.24261,3.89709,4.2641,3.89709,6.74994&#10;&#9;&#9;&#9;&#9;C672.61987,558.76062,670.875,559.76721,668.72278,558.52472L668.72278,558.52472z"/></g><g><g><ellipse transform="matrix(0.86601 -0.50002 0.50002 0.86601 -146.26497 169.24951)" fill="#11B1D4" cx="242.6756" cy="357.54526" rx="12.72766" ry="22.04503"/><path fill="#FFFFFF" d="M240.37823,365.03818L240.37823,365.03818c-0.66129-0.38181-1.29579-1.05191-1.7634-1.86191&#10;&#9;&#9;&#9;&#9;&#9;l-5.69099-9.8576c-0.97429-1.6875-0.97429-3.51059,0-4.07242c0.97429-0.5625,2.5538,0.34952,3.5269,2.03622l3.92758,6.80258&#10;&#9;&#9;&#9;&#9;&#9;l8.5249-4.92087c0.97308-0.5632,2.5538,0.34949,3.5269,2.03619c0.97429,1.6868,0.97429,3.51059,0,4.07242l-10.28839,5.93973&#10;&#9;&#9;&#9;&#9;&#9;c-0.4677,0.26999-1.1022,0.2074-1.76341-0.17441L240.37823,365.03818z"/></g><path fill="#E4E4E4" d="M537.51996,532.27319l-268.57611-155.0625c-2.15222-1.24261-3.89709-4.2641-3.89709-6.74991&#10;&#9;&#9;&#9;&#9;s1.74487-3.4924,3.89709-2.24991l268.57611,155.0625c2.15222,1.24261,3.89709,4.2641,3.89709,6.74994&#10;&#9;&#9;&#9;&#9;C541.41705,532.50909,539.67212,533.51569,537.51996,532.27319z"/></g><g><g><ellipse transform="matrix(0.86601 -0.50002 0.50002 0.86601 -219.343 327.02603)" fill="#E4E4E4" cx="500.5368" cy="572.79211" rx="12.72765" ry="22.04503"/><path fill="#FFFFFF" d="M498.2406,580.28528L498.2406,580.28528c-0.66132-0.38177-1.29581-1.05188-1.76337-1.86188&#10;&#9;&#9;&#9;&#9;&#9;l-5.69098-9.8576c-0.97433-1.6875-0.97433-3.51062,0-4.07245c0.9743-0.5625,2.55377,0.34955,3.52692,2.03625l3.92761,6.80255&#10;&#9;&#9;&#9;&#9;&#9;l8.52487-4.92084c0.97311-0.56323,2.5538,0.34949,3.52692,2.03619c0.97433,1.68677,0.97433,3.51056,0,4.07239l-10.28839,5.93976&#10;&#9;&#9;&#9;&#9;&#9;c-0.46768,0.26996-1.1022,0.2074-1.76337-0.17444L498.2406,580.28528z"/></g><path fill="#E4E4E4" d="M795.38232,747.52026L526.80621,592.45782c-2.15222-1.24261-3.89709-4.2641-3.89709-6.74994&#10;&#9;&#9;&#9;&#9;c0-2.48578,1.74493-3.49237,3.89709-2.24988l268.57611,155.0625c2.15222,1.24261,3.89709,4.26404,3.89709,6.74988&#10;&#9;&#9;&#9;&#9;S797.53455,748.76282,795.38232,747.52026z"/></g><g><g><ellipse transform="matrix(0.86601 -0.50002 0.50002 0.86601 -282.20877 374.41922)" fill="#E4E4E4" cx="557.53638" cy="713.79199" rx="12.72768" ry="22.04509"/><path fill="#FFFFFF" d="M555.2406,721.28534L555.2406,721.28534c-0.66132-0.38177-1.29578-1.05188-1.76337-1.86188&#10;&#9;&#9;&#9;&#9;&#9;l-5.69098-9.85767c-0.9743-1.68744-0.9743-3.51056,0-4.07239c0.9743-0.5625,2.55377,0.34949,3.52692,2.03619l3.92761,6.80261&#10;&#9;&#9;&#9;&#9;&#9;l8.5249-4.9209c0.97308-0.56317,2.55377,0.34949,3.52692,2.03619c0.9743,1.68677,0.9743,3.51062,0,4.07245l-10.28839,5.9397&#10;&#9;&#9;&#9;&#9;&#9;c-0.46771,0.27002-1.10223,0.20734-1.76337-0.17438L555.2406,721.28534z"/></g><path fill="#E4E4E4" d="M852.38232,888.52026l-268.57617-155.0625c-2.15216-1.24255-3.89709-4.26404-3.89709-6.74988&#10;&#9;&#9;&#9;&#9;c0-2.48578,1.74493-3.49243,3.89709-2.24988l268.57617,155.0625c2.15216,1.24255,3.89709,4.26404,3.89709,6.74988&#10;&#9;&#9;&#9;&#9;C856.27942,888.75616,854.53448,889.76282,852.38232,888.52026z"/></g><g><g><ellipse transform="matrix(0.86601 -0.50002 0.50002 0.86601 -201.48128 159.67877)" fill="#E4E4E4" cx="197.20908" cy="455.78973" rx="12.72766" ry="22.04503"/><path fill="#FFFFFF" d="M194.91193,463.28308L194.91193,463.28308c-0.66129-0.38181-1.29579-1.05191-1.7634-1.86191&#10;&#9;&#9;&#9;&#9;&#9;l-5.69099-9.8576c-0.97429-1.6875-0.97429-3.51059,0-4.07242c0.97429-0.5625,2.5538,0.34949,3.5269,2.03619l3.92758,6.80261&#10;&#9;&#9;&#9;&#9;&#9;l8.5249-4.9209c0.97308-0.56317,2.5538,0.34952,3.5269,2.03622c0.97429,1.6868,0.97429,3.51059,0,4.07242l-10.28839,5.9397&#10;&#9;&#9;&#9;&#9;&#9;c-0.4677,0.27002-1.1022,0.20743-1.76341-0.17438L194.91193,463.28308z"/></g><path fill="#E4E4E4" d="M492.05365,630.51813l-268.57611-155.0625c-2.15219-1.24261-3.89709-4.2641-3.89709-6.74991&#10;&#9;&#9;&#9;&#9;s1.7449-3.4924,3.89709-2.24991l268.57611,155.0625c2.15219,1.24261,3.89709,4.2641,3.89709,6.74994&#10;&#9;&#9;&#9;&#9;C495.95074,630.75403,494.20581,631.76062,492.05365,630.51813L492.05365,630.51813z"/></g><path fill="#11B1D4" d="M466.74164,189.9182l-103.923-60c-4.30432-2.48511-7.79419-8.52971-7.79419-13.4997&#10;&#9;&#9;&#9;c0-4.9701,3.4899-6.98479,7.79419-4.4997l103.923,60c4.30432,2.48511,7.79419,8.52969,7.79419,13.49969&#10;&#9;&#9;&#9;S471.0459,192.40329,466.74164,189.9182z"/><polygon opacity="0.05" enable-background="new" points="712.05103,1029.92847 284.32425,782.98022 318.86011,763.04089 &#10;&#9;&#9;&#9;746.58704,1009.98907"/><g><ellipse transform="matrix(0.39156 -0.92015 0.92015 0.39156 -780.64081 625.80969)" opacity="0.05" fill="#1A1A1A" cx="82.89059" cy="903.19269" rx="25.03684" ry="62.19828" enable-background="new"/><g><g><path fill="#FFD3D4" d="M12.75583,359.7757c-6.8135,10.94571-4.225,94.35712,7.164,95.08429&#10;&#9;&#9;&#9;&#9;&#9;&#9;c11.389,0.7272,12.3094-40.64459,17.8726-75.23846c5.7056-35.47873-18.2231-30.79153-25.0366-19.84589L12.75583,359.7757z"/><path fill="#FFD3D4" d="M17.40593,439.43649c-13.3763,4.65302-0.2071,100.12589,7.6283,99.97641&#10;&#9;&#9;&#9;&#9;&#9;&#9;c7.0181-0.13391,9.7635-70.54193,5.3895-88.49323C26.04973,432.96841,17.40593,439.43649,17.40593,439.43649z"/><path fill="#FFD3D4" d="M34.27363,534.42499c-0.4668-4.68457-3.9451-11.78925-11.4466-12.64368&#10;&#9;&#9;&#9;&#9;&#9;&#9;c-7.7895-0.88721-10.8847,11.2854-10.92,13.94006c-0.2397,18.05273,6.2909,19.84637,12.556,21.14343&#10;&#9;&#9;&#9;&#9;&#9;&#9;S35.24523,544.17511,34.27363,534.42499z"/></g><path fill="#EDE6EB" d="M37.54893,344.08749c-7.2179,1.3761-18.3176,4.86301-24.7832,12.79419&#10;&#9;&#9;&#9;&#9;&#9;c-10.5141,12.89722-13.437,57.3577-12.6428,58.33344c0.7019,0.8624,10.6152,8.96622,18.1452,8.96689&#10;&#9;&#9;&#9;&#9;&#9;c30.4418,0.00259,19.2808-80.09448,19.2808-80.09448V344.08749z"/><path opacity="0.1" d="M33.52523,370.6622c0,0-5.5068,5.90579-8.0596,10.94827&#10;&#9;&#9;&#9;&#9;&#9;c-6.7295,13.29303-11.9252,32.80463,1.6587,38.69101s6.4009-49.63931,6.4009-49.63931V370.6622z" enable-background="new"/><g><path fill="#EDE6EB" d="M112.23213,381.6554c-1.485-5.47119-4.0979-11.22559-8.6359-16.55554&#10;&#9;&#9;&#9;&#9;&#9;&#9;c-9.9194-11.65131-26.14339-18.73328-50.1692-22.0806c-4.0714-0.56729-17.9359-2.20071-26.3322,5.65869&#10;&#9;&#9;&#9;&#9;&#9;&#9;c-11.3193,10.5957-5.6955,32.84592-4.418,53.9989c1.3333,22.08051,10.7739,25.7988,4.9664,75.14468&#10;&#9;&#9;&#9;&#9;&#9;&#9;c-4.1199,35.0058,37.2223,46.55212,55.2319,47.09369c18.0096,0.54199,11.1969-11.31067,20.7526-11.10626&#10;&#9;&#9;&#9;&#9;&#9;&#9;c9.5551,0.20367,10.6201-19.15744,8.6835-28.29321c-0.35461-1.67239-0.6451-3.57861-0.83801-5.77771&#10;&#9;&#9;&#9;&#9;&#9;&#9;c-0.1392-1.58649,0.0006-3.34549,0.1453-5.2692c0.2002-2.65671,0.4102-5.63739-0.0922-8.99899&#10;&#9;&#9;&#9;&#9;&#9;&#9;c-4.057-27.168-5.2103-31.02982,4.9237-57.789c0.3152-0.83209,0.603-1.68756,0.8856-2.5452&#10;&#9;&#9;&#9;&#9;&#9;&#9;c2.5266-7.66461-3.42379-17.28989-5.1035-23.48019L112.23213,381.6554z"/><path opacity="0.1" d="M83.96783,421.95868c1.3958,15.8009,18.5684,43.43524,27.6506,52.51013&#10;&#9;&#9;&#9;&#9;&#9;&#9;c0.2002-2.65671,0.4102-5.63739-0.09221-8.99899c-4.05699-27.168-5.2103-31.02982,4.9237-57.789&#10;&#9;&#9;&#9;&#9;&#9;&#9;c0.3152-0.83209,0.603-1.68759,0.8856-2.5452C104.34413,401.71613,81.83323,397.79443,83.96783,421.95868z" enable-background="new"/></g><path fill="#3C4358" d="M23.67493,559.57001c0,0-11.7743-40.80377,1.3035-80.66028&#10;&#9;&#9;&#9;&#9;&#9;c1.3241-4.03531,0.4362-16.27844,2.8453-16.2738c1.2683,0.00238,23.1493,21.82886,53.0129,21.1908&#10;&#9;&#9;&#9;&#9;&#9;c17.0178-0.36362,30.13059-8.74152,30.7785-8.09363s1.58221,15.18372,1.58221,15.18372&#10;&#9;&#9;&#9;&#9;&#9;c5.6292,1.5011,5.5467,71.02264,5.5467,71.02264l-95.069-2.36938L23.67493,559.57001z"/><g><path fill="#FFC9CA" d="M52.66113,331.00601c-1.4199,6.46463-5.079,13.4082-0.1185,15.66299&#10;&#9;&#9;&#9;&#9;&#9;&#9;c4.96049,2.25479,19.96519,3.70239,20.303-0.57468c0.2651-3.35641,1.4684-17.11761-0.0007-18.47049&#10;&#9;&#9;&#9;&#9;&#9;&#9;c-1.4691-1.35291-20.1837,3.38217-20.1837,3.38217H52.66113z"/><path fill="#3C4358" d="M100.52792,325.71869c-0.27469,1.86218-2.76889,2.41409-8.24839,1.51169&#10;&#9;&#9;&#9;&#9;&#9;&#9;c0,0,11.1197,6.5079,10.6468-1.1058C102.92633,326.12457,100.52794,325.71869,100.52792,325.71869z"/><path fill="#FFD3D4" d="M38.85523,295.75049c-2.2652,13.76782,2.94469,37.11923,16.9107,41.62628&#10;&#9;&#9;&#9;&#9;&#9;&#9;c17.5133,5.65192,39.7406-1.11017,43.2148-19.18188c6.92999-36.0477-5.032-42.84711-22.93501-47.10608&#10;&#9;&#9;&#9;&#9;&#9;&#9;C58.14272,266.8298,41.84283,277.59198,38.85523,295.75049L38.85523,295.75049z"/><path fill="#3C4358" d="M88.20423,302.34592c0.97761-2.18951,10.01389-3.2225,13.4585-8.68051&#10;&#9;&#9;&#9;&#9;&#9;&#9;c3.4446-5.45798-3.16241-27.15759-19.8425-31.9726c-31.7945-9.17789-46.72921,9.40219-51.0002,21.0007&#10;&#9;&#9;&#9;&#9;&#9;&#9;s-4.3304,24.27042,7.5248,37.39441c10.2795,11.3797,16.8261,15.15283,28.6364,13.5423&#10;&#9;&#9;&#9;&#9;&#9;&#9;c7.002-0.9549,16.30721-13.84729,14.3369-12.8613c-6.6586,3.33231-8.2207-13.9859-5.3834-17.96609&#10;&#9;&#9;&#9;&#9;&#9;&#9;c1.7169-2.40851,9.7143,3.09741,9.7143,3.09741S87.20503,304.58383,88.20423,302.34592L88.20423,302.34592z"/><path fill="#3C4358" d="M27.39863,330.43689c-6.1209-23.27679,12.3001-33.5947,23.6276-28.3476&#10;&#9;&#9;&#9;&#9;&#9;&#9;s-0.0435,31.91129-7.2702,34.47131c-7.2267,2.56-14.6028,0.54901-16.3574-6.12384V330.43689z"/><path fill="#3C4358" d="M99.67253,316.67999c-10.443-21.0004,2.8056-26.2688-1.88341-24.46561&#10;&#9;&#9;&#9;&#9;&#9;&#9;c-4.689,1.80301-12.0197,7.03812-12.0197,7.03812c-0.228,4.91119,7.709,14.577,9.8558,17.323&#10;&#9;&#9;&#9;&#9;&#9;&#9;c3.3063,4.22897,5.1721,7.31641,4.9026,9.14319l2.39839,0.40588c-0.1257-2.0242-1.06049-5.034-3.2538-9.44461&#10;&#9;&#9;&#9;&#9;&#9;&#9;L99.67253,316.67999z"/></g><path fill="#EDE6EB" d="M29.77733,447.17578c0.0437,1.54364-2.5512,7.70648-2.5899,9.56003&#10;&#9;&#9;&#9;&#9;&#9;c-0.0387,1.85352-0.5035,6.35208,1.1031,8.18289c0.3407,0.38818,13.8528,12.1344,18.0197,12.05103&#10;&#9;&#9;&#9;&#9;&#9;c1.9112-0.03821,40.24601,13.5116,42.4374,5.2467c1.0163-3.83301-57.7957-32.85321-57.9944-33.82181&#10;&#9;&#9;&#9;&#9;&#9;c-0.2989-1.45721-0.9759-1.21878-0.9759-1.21878L29.77733,447.17578z"/><g><g><path fill="#3C4358" d="M38.48113,884.69885c0.3172,2.49481,3.6279,6.59821,3.6279,9.8299&#10;&#9;&#9;&#9;&#9;&#9;&#9;&#9;c0,3.23175-1.0018,8.13348,0.1433,8.60352c0.6482,0.26605,2.42101-0.07782,3.0942-1.02045&#10;&#9;&#9;&#9;&#9;&#9;&#9;&#9;c0.6732-0.94263-1.7638-10.13025,2.2085-13.4292s-9.07401-3.98364-9.07401-3.98364L38.48113,884.69885z"/><path fill="#3C4358" d="M40.44273,865.09668c0,0-6.7573,10.34973-3.7279,18.4281s10.3109,9.14459,14.3844,6.93994&#10;&#9;&#9;&#9;&#9;&#9;&#9;&#9;c4.0735-2.20471,14.7823,4.15027,26.86351,0.50403c6.68219-2.01666,20.4429-12.07336,15.26649-16.88684&#10;&#9;&#9;&#9;&#9;&#9;&#9;&#9;c-1.9427-1.80652-15.2224-0.60071-24.4081,3.5871c-4.9503,2.2569-11.7254-3.55463-17.5824-7.2619&#10;&#9;&#9;&#9;&#9;&#9;&#9;&#9;s-10.796-5.31036-10.796-5.31036S40.44273,865.09668,40.44273,865.09668z"/><path fill="#FFD6D6" d="M37.42523,822.00348c0,0,7.489,30.9975,1.2763,46.28741&#10;&#9;&#9;&#9;&#9;&#9;&#9;&#9;c-0.8939,2.19995,4.7144,0.16565,12.4971,5.04193c2.2632,1.41803,4.3552,7.0675,11.1875,7.34235&#10;&#9;&#9;&#9;&#9;&#9;&#9;&#9;c10.3562,0.41663,18.689,0.83722,12.8757-2.29419c-1.608-0.86621-17.5987-5.36902-19.5848-10.40851&#10;&#9;&#9;&#9;&#9;&#9;&#9;&#9;c-4.1207-10.45605,8.9437-47.0752,8.9437-47.0752l-27.1955,1.10614V822.00348z"/></g><path fill="#3C4358" d="M75.59483,677.41675c0,0-4.66,80.72034-4.02171,156.88922&#10;&#9;&#9;&#9;&#9;&#9;&#9;c0.0362,4.31866-16.4249,9.29523-21.0701,9.50531c-5.6802,0.25677-20.6945-4.89563-20.2519-12.914&#10;&#9;&#9;&#9;&#9;&#9;&#9;c2.5387-45.99554-3.5958-96.65363-4.6268-160.05109c-0.5046-31.02972,49.97041,6.57068,49.97041,6.57068L75.59483,677.41675z"/><path fill="#3C4358" d="M23.51013,523.41199c0.0309,131.04504,2.8919,157.84985,3.8907,190.26105&#10;&#9;&#9;&#9;&#9;&#9;&#9;c0.2076,6.73596,19.2396,15.43939,24.9472,13.43823c35.4963-12.44501,24.8414-128.17419,30.3327-174.69556&#10;&#9;&#9;&#9;&#9;&#9;&#9;C88.08704,506.61401,23.50333,494.63538,23.51013,523.41199L23.51013,523.41199z"/></g><path opacity="0.1" fill="#1A1A1A" d="M65.15103,780.78644l0.9669-236.37384&#10;&#9;&#9;&#9;&#9;&#9;c-2.912-0.00269-5.3353,7.44611-6.9946,12.99146c-5.2566-4.27594-13.0466-30.48566-13.0466-30.48566&#10;&#9;&#9;&#9;&#9;&#9;c-0.3424,9.59125,5.3341,31.15173,8.0367,34.94641c-7.1185,42.7373-0.9925,166.92914,11.0375,218.92163H65.15103z" enable-background="new"/><g><g><path fill="#3C4358" d="M74.87453,906.92786c0.3172,2.49481,3.6279,6.59821,3.6279,9.8299&#10;&#9;&#9;&#9;&#9;&#9;&#9;&#9;c0,3.23175-1.0018,8.13348,0.1433,8.60352c0.6482,0.26605,2.42101-0.07782,3.0942-1.02045&#10;&#9;&#9;&#9;&#9;&#9;&#9;&#9;c0.6732-0.94263-1.76379-10.13025,2.2085-13.4292s-9.074-3.98364-9.074-3.98364L74.87453,906.92786z"/><path fill="#3C4358" d="M76.83613,887.32581c0,0-6.75729,10.34973-3.7279,18.4281&#10;&#9;&#9;&#9;&#9;&#9;&#9;&#9;c3.0294,8.07843,10.31091,9.14465,14.3844,6.93994c4.07349-2.20465,14.7823,4.15033,26.86349,0.50409&#10;&#9;&#9;&#9;&#9;&#9;&#9;&#9;c6.6822-2.01666,20.44292-12.07336,15.26649-16.8869c-1.9427-1.80652-15.2224-0.60065-24.4081,3.5871&#10;&#9;&#9;&#9;&#9;&#9;&#9;&#9;c-4.9503,2.25696-11.7254-3.55463-17.5824-7.2619c-5.857-3.70728-10.796-5.3103-10.796-5.3103v-0.00012H76.83613z"/><path fill="#FFD6D6" d="M73.81853,844.23267c0,0,7.489,30.99744,1.2763,46.28735&#10;&#9;&#9;&#9;&#9;&#9;&#9;&#9;c-0.8939,2.20001,4.7144,0.16571,12.4971,5.04199c2.26321,1.41797,4.3552,7.06744,11.18749,7.34235&#10;&#9;&#9;&#9;&#9;&#9;&#9;&#9;c10.3562,0.41656,18.68901,0.83716,12.8757-2.29425c-1.608-0.86615-17.59869-5.36902-19.58479-10.40845&#10;&#9;&#9;&#9;&#9;&#9;&#9;&#9;c-4.1207-10.45612,8.9437-47.0752,8.9437-47.0752l-27.1955,1.10608V844.23267z"/></g><g><path fill="#3C4358" d="M114.97643,702.91162c0,0-4.2735,80.67285-3.63519,156.84167&#10;&#9;&#9;&#9;&#9;&#9;&#9;&#9;c0.0362,4.31866-16.4249,9.29523-21.0701,9.50525c-5.6802,0.25684-20.6945-4.89563-20.25191-12.91394&#10;&#9;&#9;&#9;&#9;&#9;&#9;&#9;c2.5387-45.99561-17.1935-131.33142,1.4463-148.6842c22.7144-21.14606,43.51079-4.74878,43.51079-4.74878H114.97643z"/><path fill="#3C4358" d="M58.76553,533.1759c1.3362,89.25,2.1885,165.0058,5.0447,197.60596&#10;&#9;&#9;&#9;&#9;&#9;&#9;&#9;c0.6813,7.77618,50.82611-20.89771,51.16621-27.87042c1.4346-29.41321,3.7555-87.1582,3.7555-134.53137&#10;&#9;&#9;&#9;&#9;&#9;&#9;&#9;c0-76.03699-60.3972-63.9776-59.9664-35.20422L58.76553,533.1759z"/></g></g><g><g><path fill="#FFD3D4" d="M106.41054,376.8967c12.9319,3.41122,72.34029,67.3768,64.69719,75.85178&#10;&#9;&#9;&#9;&#9;&#9;&#9;&#9;c-7.64308,8.47501-38.6922-21.71619-68.0964-43.62219c-30.1563-22.46631-9.5327-35.6409,3.3992-32.22968L106.41054,376.8967z"/><path fill="#FFD3D4" d="M166.65163,453.99591c10.68149,5.44168,61.6198-61.1149,57.0015-65.89581&#10;&#9;&#9;&#9;&#9;&#9;&#9;&#9;c-4.13651-4.2822-52.49571,36.60129-61.38942,50.42462c-8.89369,13.8233,4.38791,15.47119,4.38791,15.47119H166.65163z"/><path fill="#FFD3D4" d="M216.68384,381.81381c-2.70399,2.90009-5.30081,9.08551-1.767,14.39838&#10;&#9;&#9;&#9;&#9;&#9;&#9;&#9;c3.66939,5.51691,15.8575,1.98239,17.5526,0.53244c11.5274-9.86093,4.23161-15.89774,0.30081-19.6243&#10;&#9;&#9;&#9;&#9;&#9;&#9;&#9;c-5.78961-5.48883-10.45839-1.3425-16.08629,4.69348H216.68384z"/><path fill="#FFD3D4" d="M223.37143,379.75189c4.2106-10.15048,14.2859-17.6694,16.61679-16.91748&#10;&#9;&#9;&#9;&#9;&#9;&#9;&#9;c2.3309,0.75189-2.5564,15.11298-8.30838,16.39117c-5.752,1.2782-8.3084,0.52631-8.3084,0.52631H223.37143z"/></g><path fill="#EDE6EB" d="M84.58233,406.65057c2.3049,4.68762,15.41991,8.75833,24.8196,12.54169&#10;&#9;&#9;&#9;&#9;&#9;&#9;c12.2203,4.91861,26.7762-20.95038,26.7762-20.95038s-11.8066-10.26941-15.0203-18.36102&#10;&#9;&#9;&#9;&#9;&#9;&#9;c-2.91171-7.33139-21.9038-20.37219-25.8154-22.39279s-17.7904,34.86511-10.7602,49.16248L84.58233,406.65057z"/></g><path fill="#FFCCCC" d="M48.06353,342.64929c-0.7007,0.17041-1.8967,0.82782-1.6052,1.8493s5.6637,6.13141,12.6386,6.67871&#10;&#9;&#9;&#9;&#9;&#9;c4.8964,0.38428,19.5688,3.14737,20.5927-1.26532c0.6708-2.89069-27.1237-8.35748-31.6261-7.26279V342.64929z"/></g></g></g></g></svg>