<svg xmlns="http://www.w3.org/2000/svg" xmlns:xlink="http://www.w3.org/1999/xlink" version="1.1" id="_レイヤー_2" x="0px" y="0px" viewBox="0 0 613.93793 886.01886" enable-background="new 0 0 613.93793 886.01886" width="614px" height="886px" class="lg:!max-h-[405px] isometric rectangleModalImage" role="img" aria-label="スケジュール管理1 アイソメトリック イラスト"><title>スケジュール管理1 アイソメトリック イラスト</title><g id="_レイヤー_2-2"><g><g><ellipse transform="matrix(0.86601 -0.50002 0.50002 0.86601 -69.03663 339.53546)" fill="#11B1D4" cx="599.03119" cy="298.58527" rx="12.03571" ry="20.8464"/><ellipse transform="matrix(0.86601 -0.50002 0.50002 0.86601 -56.07212 167.31737)" fill="#11B1D4" cx="284.1665" cy="188.28535" rx="12.03569" ry="20.8464"/><ellipse transform="matrix(0.86601 -0.50002 0.50002 0.86601 -64.19041 197.61679)" fill="#11B1D4" cx="336.64398" cy="218.58322" rx="12.03571" ry="20.8464"/><ellipse transform="matrix(0.86601 -0.50002 0.50002 0.86601 -88.54526 288.51498)" fill="#11B1D4" cx="494.07626" cy="309.47678" rx="12.03571" ry="20.84639"/><ellipse transform="matrix(0.86601 -0.50002 0.50002 0.86601 -96.66354 318.81442)" fill="#11B1D4" cx="546.55377" cy="339.77463" rx="12.03571" ry="20.8464"/><ellipse transform="matrix(0.86601 -0.50002 0.50002 0.86601 -104.78186 349.1138)" fill="#11B1D4" cx="599.03113" cy="370.07257" rx="12.03571" ry="20.8464"/><ellipse transform="matrix(0.86601 -0.50002 0.50002 0.86601 -99.93563 207.19519)" fill="#11B1D4" cx="336.64401" cy="290.07053" rx="12.03571" ry="20.8464"/><ellipse transform="matrix(0.86601 -0.50002 0.50002 0.86601 -108.05393 237.4946)" fill="#11B1D4" cx="389.12143" cy="320.36841" rx="12.03571" ry="20.8464"/><ellipse transform="matrix(0.86601 -0.50002 0.50002 0.86601 -116.17217 267.79401)" fill="#11B1D4" cx="441.59888" cy="350.6662" rx="12.03571" ry="20.8464"/><ellipse transform="matrix(0.86601 -0.50002 0.50002 0.86601 -140.52705 358.69217)" fill="#11B1D4" cx="599.03113" cy="441.55978" rx="12.03571" ry="20.8464"/><ellipse transform="matrix(0.86601 -0.50002 0.50002 0.86601 -127.56252 186.47417)" fill="#11B1D4" cx="284.16656" cy="331.25986" rx="12.03569" ry="20.8464"/><ellipse transform="matrix(0.86601 -0.50002 0.50002 0.86601 -143.79912 247.07297)" fill="#11B1D4" cx="389.1214" cy="391.85562" rx="12.03571" ry="20.8464"/><ellipse transform="matrix(0.86601 -0.50002 0.50002 0.86601 -151.9174 277.37241)" fill="#11B1D4" cx="441.59891" cy="422.1535" rx="12.03571" ry="20.8464"/><ellipse transform="matrix(0.86601 -0.50002 0.50002 0.86601 -160.03571 307.67178)" fill="#11B1D4" cx="494.07632" cy="452.45139" rx="12.03571" ry="20.8464"/><ellipse transform="matrix(0.86601 -0.50002 0.50002 0.86601 -168.15395 337.97119)" fill="#11B1D4" cx="546.55377" cy="482.74918" rx="12.03571" ry="20.8464"/><ellipse transform="matrix(0.86601 -0.50002 0.50002 0.86601 -163.30771 196.05254)" fill="#11B1D4" cx="284.16653" cy="402.74707" rx="12.03569" ry="20.8464"/><ellipse transform="matrix(0.86601 -0.50002 0.50002 0.86601 -203.89917 347.54959)" fill="#11B1D4" cx="546.55377" cy="554.23645" rx="12.03571" ry="20.8464"/><ellipse transform="matrix(0.86601 -0.50002 0.50002 0.86601 -176.27228 368.2706)" fill="#E6E6E6" cx="599.03113" cy="513.04712" rx="12.03571" ry="20.8464"/><ellipse transform="matrix(0.86601 -0.50002 0.50002 0.86601 -195.78088 317.25015)" fill="#E6E6E6" cx="494.07629" cy="523.9386" rx="12.03571" ry="20.8464"/><ellipse transform="matrix(0.86601 -0.50002 0.50002 0.86601 -187.66261 286.95081)" fill="#E6E6E6" cx="441.59891" cy="493.64078" rx="12.03571" ry="20.8464"/><ellipse transform="matrix(0.86601 -0.50002 0.50002 0.86601 -179.5443 256.65137)" fill="#E6E6E6" cx="389.12143" cy="463.34283" rx="12.03571" ry="20.8464"/><ellipse transform="matrix(0.86601 -0.50002 0.50002 0.86601 -171.42598 226.35196)" fill="#E6E6E6" cx="336.64401" cy="433.04492" rx="12.03571" ry="20.8464"/><ellipse transform="matrix(0.86601 -0.50002 0.50002 0.86601 -135.68076 216.77354)" fill="#E6E6E6" cx="336.64398" cy="361.55762" rx="12.03571" ry="20.8464"/><ellipse transform="matrix(0.86601 -0.50002 0.50002 0.86601 -132.40877 328.39282)" fill="#E6E6E6" cx="546.55377" cy="411.26196" rx="12.03571" ry="20.8464"/><ellipse transform="matrix(0.86601 -0.50002 0.50002 0.86601 -124.29047 298.09338)" fill="#E6E6E6" cx="494.07629" cy="380.96408" rx="12.03571" ry="20.8464"/><ellipse transform="matrix(0.86601 -0.50002 0.50002 0.86601 -72.30871 227.9162)" fill="#E6E6E6" cx="389.1214" cy="248.88112" rx="12.03571" ry="20.8464"/><ellipse transform="matrix(0.86601 -0.50002 0.50002 0.86601 -80.42699 258.21564)" fill="#E6E6E6" cx="441.59891" cy="279.17899" rx="12.03571" ry="20.8464"/><path fill="#DFDFDF" d="M495.1633,126.59921L388.03439,64.74832c-4.78259-2.7612-8.66031-9.4774-8.66031-14.9997&#10;&#9;&#9;&#9;&#9;s3.87772-7.7609,8.66031-4.9997l107.12891,61.85089c4.78259,2.76121,8.66031,9.4774,8.66031,14.9997&#10;&#9;&#9;&#9;&#9;S499.94589,129.36041,495.1633,126.59921z"/><path fill="#DFDFDF" d="M329.0181,40.99603c-0.89822-0.5186-1.77103-1.5605-2.2522-2.8007l-8.66031-22.3203&#10;&#9;&#9;&#9;&#9;c-0.46429-1.1963-0.46429-2.3398,0-2.9999l8.66031-12.3198c0.71799-1.02,2.30627-0.5952,3.54871,0.9507&#10;&#9;&#9;&#9;&#9;c1.2424,1.5459,1.66858,3.6264,0.95056,4.6469l-7.9101,11.253l7.9101,20.3872c0.71802,1.8496,0.29181,3.4379-0.95056,3.5492&#10;&#9;&#9;&#9;&#9;c-0.40933,0.0361-0.85593-0.0918-1.29651-0.3462V40.99603z"/><path fill="#DFDFDF" d="M554.17969,170.99301c0.89819,0.51862,1.771,0.48442,2.2522-0.2002l8.66028-12.3203&#10;&#9;&#9;&#9;&#9;c0.46429-0.6601,0.46429-1.8037,0-2.99989l-8.66028-22.31979c-0.71802-1.84911-2.30634-3.25821-3.54871-3.1469&#10;&#9;&#9;&#9;&#9;c-1.24243,0.1113-1.66858,1.6996-0.95062,3.54919l7.91016,20.3867l-7.91016,11.2534&#10;&#9;&#9;&#9;&#9;c-0.71796,1.02051-0.29175,3.101,0.95062,4.64688C553.29248,170.35092,553.73907,170.73862,554.17969,170.99301z"/><polygon fill="#EDEDED" points="613.93787,251.1721 269.2598,52.17212 269.2598,49.17223 613.93787,248.17221"/><path fill="#BFBFBF" d="M289.6138,273.38892c-8.142-4.70071-14.74219-16.1326-14.74219-25.5338&#10;&#9;&#9;&#9;&#9;c0-2.9265,0.64011-5.31059,1.76669-7.06551c-4.319,0.47488-7.21399,4.24521-7.21399,10.47011&#10;&#9;&#9;&#9;&#9;c0,9.4012,6.60031,20.83299,14.74219,25.5338c5.6073,3.2374,10.483,2.4371,12.9754-1.4454&#10;&#9;&#9;&#9;&#9;c-2.2038,0.24228-4.77728-0.37091-7.52808-1.9592H289.6138z"/><path fill="#11B1D4" d="M284.1665,242.74879c-2.75089-1.58818-5.3244-2.20149-7.5282-1.9592&#10;&#9;&#9;&#9;&#9;c-1.12659,1.75488-1.76669,4.13899-1.76669,7.06551c0,9.40121,6.60028,20.83298,14.74219,25.53381&#10;&#9;&#9;&#9;&#9;c2.75079,1.5882,5.32431,2.20148,7.52811,1.9592c1.12659-1.75488,1.76678-4.13901,1.76678-7.06549&#10;&#9;&#9;&#9;&#9;C298.90869,258.88141,292.30838,247.44962,284.1665,242.74879L284.1665,242.74879z"/><path opacity="0.1" d="M284.1665,242.74879c-2.75089-1.58818-5.3244-2.20149-7.5282-1.9592&#10;&#9;&#9;&#9;&#9;c-1.12659,1.75488-1.76669,4.13899-1.76669,7.06551c0,9.40121,6.60028,20.83298,14.74219,25.53381&#10;&#9;&#9;&#9;&#9;c2.75079,1.5882,5.32431,2.20148,7.52811,1.9592c1.12659-1.75488,1.76678-4.13901,1.76678-7.06549&#10;&#9;&#9;&#9;&#9;C298.90869,258.88141,292.30838,247.44962,284.1665,242.74879L284.1665,242.74879z" enable-background="new"/></g><g><path opacity="0.2" fill="#FFFBA9" d="M349.32172,885.08661l-69.28201-40&#10;&#9;&#9;&#9;&#9;c-2.39148-1.38068-2.09158-3.79242,0.66992-5.38678l67.93997-39.22528c2.76138-1.5943,6.93869-1.76746,9.33011-0.38678&#10;&#9;&#9;&#9;&#9;l69.28198,40c2.39151,1.38068,2.09158,3.79242-0.66989,5.38678l-67.94,39.22528&#10;&#9;&#9;&#9;&#9;C355.89041,886.29413,351.7131,886.46729,349.32172,885.08661z" enable-background="new"/><path opacity="0.2" fill="#FFFBA9" d="M525.63318,595.83887l-343.96515,48.99768l96.87479,197.20306&#10;&#9;&#9;&#9;&#9;c-0.35721,1.12225,0.12433,2.25439,1.4968,3.04688l69.28198,40c2.39157,1.38092,6.56879,1.20746,9.3302-0.38678&#10;&#9;&#9;&#9;&#9;l67.94009-39.22504c2.21582-1.2793,2.8425-3.08405,1.76981-4.46094l97.27161-245.17487H525.63318z" enable-background="new"/><g><g><path fill="#FFFFFF" d="M188.56332,637.90057l195.94077-113.1264c5.67731-3.27783,14.26541-3.63385,19.18201-0.7951&#10;&#9;&#9;&#9;&#9;&#9;&#9;l116.42908,67.2204c4.91669,2.83862,4.30011,7.797-1.3772,11.07477l-195.94073,113.1264&#10;&#9;&#9;&#9;&#9;&#9;&#9;c-5.67731,3.27783-14.26541,3.63385-19.18201,0.79517l-116.42908-67.2204c-4.9167-2.83856-4.30009-7.797,1.3772-11.07477&#10;&#9;&#9;&#9;&#9;&#9;&#9;L188.56332,637.90057z"/><path fill="#11B1D4" d="M302.3165,716.94586l-116.42969-67.2207c-5.62489-3.24762-5.62509-8.53174-0.00031-11.77911&#10;&#9;&#9;&#9;&#9;&#9;&#9;l198.69577-114.7171c5.62521-3.24768,14.7775-3.24756,20.4025,0l116.42972,67.2207&#10;&#9;&#9;&#9;&#9;&#9;&#9;c5.62488,3.24762,5.62512,8.53168-0.00012,11.77942l-198.6958,114.7171c-5.62479,3.2475-14.7771,3.24738-20.40198-0.00024&#10;&#9;&#9;&#9;&#9;&#9;&#9;L302.3165,716.94586z M402.38681,524.72888c-4.19232-2.42041-11.01379-2.42053-15.20642,0.00012l-198.69577,114.7171&#10;&#9;&#9;&#9;&#9;&#9;&#9;c-4.1922,2.42023-4.19209,6.35876,0.0002,8.77917l116.4297,67.2207c4.19229,2.42041,11.01379,2.42047,15.20599,0.00006&#10;&#9;&#9;&#9;&#9;&#9;&#9;l198.69577-114.7171c4.19257-2.42059,4.1925-6.35895,0.00018-8.77942l-116.42969-67.22064H402.38681z"/></g><g><polygon fill="#BFBFBF" points="213.79022,643.83588 212.92421,643.33582 394.78421,538.33899 395.65021,538.83899"/><polygon fill="#BFBFBF" points="313.38312,701.33588 312.51712,700.83582 494.37708,595.83899 495.2431,596.33899"/><polygon fill="#BFBFBF" points="494.37708,596.83887 393.91818,538.83887 394.78421,538.33899 495.2431,596.33899"/><polygon fill="#BFBFBF" points="476.1911,607.33856 375.73218,549.33856 376.59821,548.83868 477.0571,606.83868"/><polygon fill="#BFBFBF" points="458.0051,617.83826 357.5462,559.83826 358.4122,559.33826 458.87109,617.33826"/><polygon fill="#BFBFBF" points="439.81909,628.33801 339.3602,570.33795 340.2262,569.83795 440.68506,627.83795"/><polygon fill="#BFBFBF" points="421.63309,638.83765 321.17419,580.83771 322.04022,580.33771 422.49908,638.33771"/><polygon fill="#BFBFBF" points="403.44711,649.33734 302.98822,591.33734 303.85419,590.8374 404.31308,648.8374"/><polygon fill="#BFBFBF" points="385.26111,659.8371 284.80222,601.83704 285.66821,601.33704 386.12708,659.33704"/><polygon fill="#BFBFBF" points="367.0751,670.33679 266.61621,612.33679 267.48221,611.83679 367.9411,669.83679"/><polygon fill="#BFBFBF" points="348.88907,680.83643 248.43021,622.83649 249.29622,622.33649 349.7551,680.33649"/><polygon fill="#BFBFBF" points="330.70309,691.33618 230.2442,633.33618 231.1102,632.83618 331.56909,690.83612"/><polygon fill="#BFBFBF" points="312.51712,701.83588 212.05821,643.83588 212.92421,643.33582 313.38312,701.33588"/><path fill="#11B1D4" d="M432.45706,592.5885l-55.4256-32.00006c-1.43488-0.82837-1.25488-2.27545,0.40192-3.23206&#10;&#9;&#9;&#9;&#9;&#9;&#9;l11.32001-6.53564c1.65692-0.9566,4.16321-1.06049,5.59811-0.23206l55.4256,32&#10;&#9;&#9;&#9;&#9;&#9;&#9;c1.43491,0.82837,1.25488,2.27551-0.40192,3.23212l-11.32001,6.53558&#10;&#9;&#9;&#9;&#9;&#9;&#9;C436.39825,593.31299,433.89197,593.41687,432.45706,592.5885z"/><path fill="#11B1D4" d="M305.5881,665.8363l-55.42561-32c-1.43489-0.82843-1.2549-2.27551,0.4019-3.23212l11.32001-6.53558&#10;&#9;&#9;&#9;&#9;&#9;&#9;c1.65689-0.95667,4.16321-1.06049,5.59808-0.23212l55.4256,31.99994c1.43491,0.82843,1.25488,2.27551-0.40192,3.23212&#10;&#9;&#9;&#9;&#9;&#9;&#9;l-11.31998,6.53558c-1.65689,0.9566-4.16321,1.06049-5.59811,0.23212L305.5881,665.8363z"/><path fill="#11B1D4" d="M391.32208,616.33777l-55.4256-32c-1.43491-0.82837-1.25488-2.27551,0.40192-3.23212l26.04199-15.0354&#10;&#9;&#9;&#9;&#9;&#9;&#9;c1.65692-0.9566,4.16321-1.06049,5.59811-0.23206l55.4256,32c1.43488,0.82837,1.25488,2.27551-0.40192,3.23212&#10;&#9;&#9;&#9;&#9;&#9;&#9;l-26.04199,15.0354C395.26328,617.06232,392.75699,617.1662,391.32208,616.33777z"/><path fill="#11B1D4" d="M365.3421,631.33734l-55.4256-32c-1.43491-0.82837-1.25491-2.27551,0.40189-3.23212l18.24802-10.53546&#10;&#9;&#9;&#9;&#9;&#9;&#9;c1.65689-0.95667,4.16321-1.06049,5.59808-0.23212l55.42563,32c1.43488,0.82843,1.25488,2.27551-0.40192,3.23212&#10;&#9;&#9;&#9;&#9;&#9;&#9;l-18.24799,10.53552C369.28329,632.06189,366.77701,632.16577,365.3421,631.33734z"/></g></g></g><g><g><g><path fill="#FFD3D4" d="M128.11351,135.25603c10.5406,8.23199,45.05449,86.03979,30.14751,93.66148&#10;&#9;&#9;&#9;&#9;&#9;&#9;c-10.16132,5.1953-27.00121-35.20821-45.39141-66.9301c-18.8606-32.53329,4.7032-34.96339,15.2438-26.73138H128.11351z"/><path fill="#FFD3D4" d="M148.69872,222.70601c0.67641,14.1875,94.8559,45.01518,96.3503,32.6723&#10;&#9;&#9;&#9;&#9;&#9;&#9;c1.7662-14.5887-66.42509-40.95119-83.1086-41.89171c-16.6835-0.94051-13.24159,9.21941-13.24159,9.21941H148.69872z"/><path fill="#FFD3D4" d="M252.68721,245.0647c-4.15279-1.1181-11.298-0.0625-14.32278,7.09911&#10;&#9;&#9;&#9;&#9;&#9;&#9;c-3.14101,7.43651,6.33249,14.62059,8.59419,15.5519c15.3801,6.3334,18.9122,0.45319,21.9379-5.33112&#10;&#9;&#9;&#9;&#9;&#9;&#9;c3.02573-5.7843-7.56598-14.99289-16.20918-17.3199L252.68721,245.0647z"/><path fill="#FFD3D4" d="M277.49521,258.3176c4.13608-0.52109,9.71979-2.51828,8.62869-5.84399&#10;&#9;&#9;&#9;&#9;&#9;&#9;c-1.13303-3.4534-12.9527-3.976-15.37109-3.81129c-16.44662,1.12021-16.4498,4.0867-16.06801,6.90379&#10;&#9;&#9;&#9;&#9;&#9;&#9;c0.38179,2.81711,14.20192,3.83609,22.8105,2.7514L277.49521,258.3176z"/></g><path fill="#E7E7EE" d="M125.43492,230.89391c0,0,49.4785-12.81371,33.67709-41.91899&#10;&#9;&#9;&#9;&#9;&#9;c-10.10489-18.61259-8.17659-77.15749-49.87939-80.205C104.46503,108.42152,111.44623,220.93172,125.43492,230.89391z"/><path opacity="0.1" d="M136.18303,225.09131c7.76788,1.11441,5.56989-66.90639-2.90111-64.75278&#10;&#9;&#9;&#9;&#9;&#9;s0.01691,64.33899,2.90111,64.75281V225.09131z" enable-background="new"/></g><g><ellipse transform="matrix(0.92015 -0.39156 0.39156 0.92015 -255.89667 91.75116)" opacity="0.05" cx="97.01978" cy="673.31818" rx="73.34789" ry="29.52491" enable-background="new"/><g><g><path fill="#3C4358" d="M38.57003,291.94049c0,0-18.1309,12.26523-7.1836,57.61823s83.11929-12.61279,83.11929-12.61279&#10;&#9;&#9;&#9;&#9;&#9;&#9;&#9;l-52.82479-45.0054h-23.1109L38.57003,291.94049z"/><g><g><path fill="#998E82" d="M106.53212,667.93658c0,0,3.6747-0.80011,4.058-1.56671s-2.7284-2.11957-2.7284-2.11957&#10;&#9;&#9;&#9;&#9;&#9;&#9;&#9;&#9;&#9;l-1.3296,1.55585V667.93658z"/><path fill="#4A4C57" d="M92.42912,654.30762c-1.45879-6.073-1.6018-12.40442,2.60531-17.92694&#10;&#9;&#9;&#9;&#9;&#9;&#9;&#9;&#9;&#9;c7.0303-9.22791,18.9838-5.36011,25.48979-1.85687c6.506,3.50317,8.49931,10.43506,26.4062,20.82233&#10;&#9;&#9;&#9;&#9;&#9;&#9;&#9;&#9;&#9;c4.5249,2.62463,27.62849,14.23279,20.5049,23.4314c-5.12502,6.6178-20.9556,4.53723-36.17189,1.44867&#10;&#9;&#9;&#9;&#9;&#9;&#9;&#9;&#9;&#9;c-12.9992-2.63849-20.8588-15.32635-23.97649-14.53583c-0.4547,0.22266,0.1239,1.83795-0.7547,2.24615&#10;&#9;&#9;&#9;&#9;&#9;&#9;&#9;&#9;&#9;c-1.9277,0.89697-14.4616-5.72516-14.731-8.3255c-0.2368-2.29156-0.369-3.06812,0.628-5.30353L92.42912,654.30762z"/></g><path fill="#FFD3D4" d="M102.05372,595.68036c-7.43719,11.43396,1.1282,32.55981-4.0028,39.66437&#10;&#9;&#9;&#9;&#9;&#9;&#9;&#9;&#9;c-6.54829,9.06726,10.1257,17.02783,14.0235,16.26379c0.91489-0.17926-0.7127-2.69885-1.2171-4.68176&#10;&#9;&#9;&#9;&#9;&#9;&#9;&#9;&#9;c-0.5723-2.24951,12.7954-7.85736,15.1313-6.28027c1.335,0.90143-3.8968-2.99799-6.9588-4.71851&#10;&#9;&#9;&#9;&#9;&#9;&#9;&#9;&#9;c-1.23789-0.69562-2.76209-1.74738-3.1683-2.23108c-2.5116-2.99005,5.0939-31.53802,6.44009-34.80725&#10;&#9;&#9;&#9;&#9;&#9;&#9;&#9;&#9;c1.3462-3.26917-17.03459-8.14948-20.24789-3.20935V595.68036z"/><path fill="#3C4358" d="M84.09492,451.99188c0,0,4.6687,94.72028,4.0292,170.88916&#10;&#9;&#9;&#9;&#9;&#9;&#9;&#9;&#9;c-0.03629,4.31873,16.4555,9.29535,21.10931,9.50531c5.6907,0.25684,20.73299-4.89557,20.2896-12.914&#10;&#9;&#9;&#9;&#9;&#9;&#9;&#9;&#9;c-2.54341-45.99561,7.75308-132.22577,8.92569-172.08307c2.0163-68.5369-54.35369,4.60269-54.35369,4.60269&#10;&#9;&#9;&#9;&#9;&#9;&#9;&#9;&#9;L84.09492,451.99188z"/><path fill="#3C4358" d="M139.21793,303.41592c0.51439,106.96396,7.37009,196.81836-27.7769,198.89755&#10;&#9;&#9;&#9;&#9;&#9;&#9;&#9;&#9;c-45.1451,2.67059-27.8695-130.81729-32.58549-177.51157C72.43552,261.23599,139.07953,274.62762,139.21793,303.41592z"/></g><path opacity="0.1" fill="#1A1A1A" d="M95.35942,359.2478&#10;&#9;&#9;&#9;&#9;&#9;&#9;&#9;c21.0221-0.01849,3.6659,127.4549-7.3311,190.2478L95.35942,359.2478z" enable-background="new"/><g><path fill="#998E82" d="M54.80642,697.51215c0,0,3.6747-0.80005,4.058-1.56665s-2.7284-2.11963-2.7284-2.11963&#10;&#9;&#9;&#9;&#9;&#9;&#9;&#9;&#9;l-1.3296,1.55585V697.51215z"/><path fill="#4A4C57" d="M40.70353,683.88318c-1.4588-6.073-1.6018-12.40442,2.6053-17.92688&#10;&#9;&#9;&#9;&#9;&#9;&#9;&#9;&#9;c7.0303-9.22791,18.9838-5.36011,25.4898-1.85693c6.506,3.50323,8.4993,10.43512,26.4062,20.82233&#10;&#9;&#9;&#9;&#9;&#9;&#9;&#9;&#9;c4.52489,2.62463,27.62849,14.23279,20.5049,23.4314c-5.125,6.6178-20.9556,4.53729-36.1719,1.44867&#10;&#9;&#9;&#9;&#9;&#9;&#9;&#9;&#9;c-12.9992-2.63849-20.85879-15.32629-23.9765-14.53583c-0.4547,0.22272,0.1239,1.83801-0.7547,2.24615&#10;&#9;&#9;&#9;&#9;&#9;&#9;&#9;&#9;c-1.9277,0.89697-14.4616-5.72516-14.731-8.3255c-0.2368-2.29156-0.369-3.06805,0.628-5.30347L40.70353,683.88318z"/></g><path fill="#FFD3D4" d="M50.32803,625.25598c-7.4372,11.43396,1.1282,32.55975-4.0028,39.66443&#10;&#9;&#9;&#9;&#9;&#9;&#9;&#9;c-6.5483,9.0672,10.1257,17.02777,14.02349,16.26379c0.9149-0.17932-0.7127-2.69891-1.21709-4.68176&#10;&#9;&#9;&#9;&#9;&#9;&#9;&#9;c-0.5723-2.24957,12.79539-7.85748,15.1313-6.28033c1.335,0.90143-3.8968-2.99792-6.9588-4.71844&#10;&#9;&#9;&#9;&#9;&#9;&#9;&#9;c-1.2379-0.69556-2.7621-1.74744-3.1683-2.23108c-2.5116-2.99005,5.0939-31.53796,6.4401-34.80719&#10;&#9;&#9;&#9;&#9;&#9;&#9;&#9;c1.3462-3.26917-17.0346-8.14948-20.24789-3.20935L50.32803,625.25598z"/><path fill="#3C4358" d="M35.04683,480.9046c0,0,4.6687,94.72028,4.0292,170.88916&#10;&#9;&#9;&#9;&#9;&#9;&#9;&#9;c-0.0363,4.31873,16.4555,9.29529,21.10929,9.50531c5.6907,0.25684,20.73299-4.89563,20.2896-12.91394&#10;&#9;&#9;&#9;&#9;&#9;&#9;&#9;c-2.5434-45.99561,10.5339-117.16797,9.65221-157.03281c-0.6862-31.02618-55.0803-10.44769-55.0803-10.44769&#10;&#9;&#9;&#9;&#9;&#9;&#9;&#9;L35.04683,480.9046z"/><path fill="#3C4358" d="M96.63702,329.21637c0.5144,106.96399,0.9029,199.93054-34.244,202.0097&#10;&#9;&#9;&#9;&#9;&#9;&#9;&#9;c-45.1451,2.67059-21.4023-133.92947-26.1184-180.62381c-6.42-63.56589,60.224-50.17429,60.3624-21.38599V329.21637z"/></g><g><polygon fill="#CDCDD5" points="116.18472,126.92132 116.18472,126.92132 115.62611,123.79212"/><path fill="#E7E7EE" d="M136.70372,155.79651c0.5417-14.35629-7.3929-43.48009-31.22129-48.10959&#10;&#9;&#9;&#9;&#9;&#9;&#9;&#9;c-29.825,0.6232-31.4865,4.2307-42.2577,8.8112s-22.2066,23.0516-23.2249,34.5507&#10;&#9;&#9;&#9;&#9;&#9;&#9;&#9;c-0.5836,6.58929-0.9987,15.57909-0.9741,19.8575c0.0986,17.2178,3.9009,21.9852,1.5908,64.6924&#10;&#9;&#9;&#9;&#9;&#9;&#9;&#9;c-0.3674,6.79079-5.1336,26.4117-9.2301,43.9045c-3.1173,13.3114-8.0153,32.79688-8.1226,37.04999&#10;&#9;&#9;&#9;&#9;&#9;&#9;&#9;c6.5897,3.73389,14.0652,5.48199,21.6,9.6608c7.9321,4.39911,15.99549,11.14502,25.8583,11.49527&#10;&#9;&#9;&#9;&#9;&#9;&#9;&#9;c14.9313,0.5304,26.91649-12.1781,45.2883-17.10287c14.869-3.98581,27.4203-12.53799,28.0251-16.24478&#10;&#9;&#9;&#9;&#9;&#9;&#9;&#9;c1.064-6.52151-3.6394-15.4653-4.2832-24.8584c-0.6709-9.78931,1.3502-20.5925,0.24861-31.60721&#10;&#9;&#9;&#9;&#9;&#9;&#9;&#9;c-4.9225-49.21751-3.839-77.74309-3.2973-92.0994L136.70372,155.79651z"/><path opacity="0.1" d="M63.18382,226.93471c-1.0469-36.28169-13.9101-50.4789-24.1581-56.02849&#10;&#9;&#9;&#9;&#9;&#9;&#9;&#9;c0.0986,17.2178,3.9009,21.9852,1.5908,64.6924c-0.3674,6.7908-5.1336,26.4117-9.2301,43.9045&#10;&#9;&#9;&#9;&#9;&#9;&#9;&#9;C46.69543,274.64502,64.18253,261.54819,63.18382,226.93471z" enable-background="new"/><path fill="#FFC9CA" d="M107.75342,112.05082c-2.1072-2.3863-4.5341-2.4608-4.5341-2.4608s-1.53551-9.7485-1.5769-10.5052&#10;&#9;&#9;&#9;&#9;&#9;&#9;&#9;l-27.23779-2.433c0,0,0.9081,15.7543-1.1325,17.1433c-3.88039,2.6412-10.6702,1.4493-8.6702,7.4493&#10;&#9;&#9;&#9;&#9;&#9;&#9;&#9;c2,6.00001,26.0443,15.42011,37.0443,11.4201C112.64622,128.66451,109.86053,114.43711,107.75342,112.05082z"/><g><path fill="#FFD3D4" d="M125.53832,48.66452c5.7474,9.999-3.5203,31.2199-3.5203,31.2199s-1.1489,26.6413-26.0042,31.4593&#10;&#9;&#9;&#9;&#9;&#9;&#9;&#9;&#9;c-19.7593,3.8302-33.26379-18.3794-33.26379-18.3794s-18.499-54.84759,15.6382-62.16029s41.40269,7.8615,47.1501,17.8604&#10;&#9;&#9;&#9;&#9;&#9;&#9;&#9;&#9;L125.53832,48.66452z"/><path fill="#3C4358" d="M108.98732,23.52443c-22.909-10.0002-39.1853-1.4506-41.15739,4.8984&#10;&#9;&#9;&#9;&#9;&#9;&#9;&#9;&#9;c-6.911,1.8173-13.91699,8.3967-15.6324,20c-3.3037,22.3476,10.5524,44.5416,10.5524,44.5416s4.918-5.7806,1.4297-5.6834&#10;&#9;&#9;&#9;&#9;&#9;&#9;&#9;&#9;c-4.412,0.1229-6.9522-17.1549-1.6338-21.8602c5.3183-4.7052,8.1331,14.4501,8.1331,14.4501l2.75999,5.4651l3.0098-11.9651&#10;&#9;&#9;&#9;&#9;&#9;&#9;&#9;&#9;c0,0,3.1003-0.7673,9.2878-7.8414c5.51659-6.3071,23.5676-11.0426,28.0668-9.1606&#10;&#9;&#9;&#9;&#9;&#9;&#9;&#9;&#9;c4.7793,1.9992,12.7558,9.031,12.45149,10.241l-0.8739,3.8798c0,0,3.68501-4.2985,5.3056-9.8933&#10;&#9;&#9;&#9;&#9;&#9;&#9;&#9;&#9;c1.6474-5.6871,5.2804-25.2947-21.6992-37.0718L108.98732,23.52443z"/></g></g></g></g><g><g><path fill="#FFD3D4" d="M24.11133,170.84581c-6.6626,11.5966-4.901,96.27571,11.7791,97.7198&#10;&#9;&#9;&#9;&#9;&#9;&#9;c11.3699,0.98428,11.7473-42.78651,16.8315-79.0994c5.2142-37.24179-21.9479-30.21689-28.6105-18.62039L24.11133,170.84581z"/><path fill="#FFD3D4" d="M31.46783,248.44312c-13.198,5.31389-0.0204,108.58551,11.2222,108.11838&#10;&#9;&#9;&#9;&#9;&#9;&#9;c7.0133-0.29138,7.2424-77.90869,2.2108-96.54089S31.46783,248.44312,31.46783,248.44312z"/><path fill="#FFD3D4" d="M54.40013,363.15079c-0.4152-4.92261-3.9514-12.4324-11.8085-13.44843&#10;&#9;&#9;&#9;&#9;&#9;&#9;c-8.1587-1.05499-11.6004,11.66742-11.6797,14.45221c-0.5392,18.9375,6.2842,20.92361,12.8371,22.38419&#10;&#9;&#9;&#9;&#9;&#9;&#9;S55.26413,373.39627,54.40013,363.15079z"/></g><path fill="#E7E7EE" d="M58.64713,119.26082c0.4893-1.3423-29.2035,15.54759-35.0572,26.10159&#10;&#9;&#9;&#9;&#9;&#9;c-5.0638,9.1299-16.3819,40.54329-18.0287,67.8911c-0.7743,12.85841-6.1847,17.89459-5.5019,25.49561&#10;&#9;&#9;&#9;&#9;&#9;c0,0,26.472,27.8237,55.43169,15.80721c0,0,1.9942-81.27159,7.7827-88.25519c0,0-5.4301-44.8363-4.6267-47.0403&#10;&#9;&#9;&#9;&#9;&#9;L58.64713,119.26082z"/></g></g></g></g></svg>