<svg xmlns="http://www.w3.org/2000/svg" xmlns:xlink="http://www.w3.org/1999/xlink" version="1.1" id="_レイヤー_2" x="0px" y="0px" viewBox="0 0 839.47375 917.66156" enable-background="new 0 0 839.47375 917.66156" width="839px" height="918px" class="lg:!max-h-[405px] isometric rectangleModalImage" role="img" aria-label="タスク管理 アイソメトリック イラスト"><title>タスク管理 アイソメトリック イラスト</title><g id="_2"><g><g><g><path fill="#EFEFEF" d="M831.67987,622.52069L591.39984,483.79492c-3.82629-2.20911-6.92822-8.1358-6.92822-13.23761V311.07492&#10;&#9;&#9;&#9;&#9;&#9;c0-5.10178,3.10187-7.44672,6.92822-5.23758l240.28003,138.7258c3.82629,2.20908,6.92816,8.13577,6.92816,13.23761v159.48239&#10;&#9;&#9;&#9;&#9;&#9;c0,5.10181-3.10187,7.44672-6.92816,5.23761V622.52069z"/><path fill="#DFDFDF" d="M831.6803,623.52148L591.40051,484.7959c-4.30048-2.48291-7.79755-8.535-7.79755-13.50558v-161.9581&#10;&#9;&#9;&#9;&#9;&#9;c0-4.96078,3.49707-6.97479,7.79755-4.49188L831.6803,443.56589c4.29626,2.4805,7.79346,8.53259,7.79346,13.49338V619.0174&#10;&#9;&#9;&#9;&#9;&#9;C839.47375,623.98798,835.97668,626.00195,831.6803,623.52148z M591.40057,306.83231&#10;&#9;&#9;&#9;&#9;&#9;c-3.34491-1.93121-6.0639-0.35651-6.0639,3.50079v161.95807c0,3.86713,2.71899,8.5813,6.0639,10.51251l240.27985,138.72556&#10;&#9;&#9;&#9;&#9;&#9;c3.34058,1.92871,6.05957,0.35413,6.05957-3.513V456.0582c0-3.85733-2.71899-8.57159-6.05957-10.50031L591.40063,306.83231&#10;&#9;&#9;&#9;&#9;&#9;H591.40057z"/></g><g><path fill="#11B1D4" d="M639.08496,372.36722c0,13.80667-9.6933,19.4028-21.65057,12.4993&#10;&#9;&#9;&#9;&#9;&#9;c-11.95734-6.9035-21.65063-23.6926-21.65063-37.4993s9.6933-19.40283,21.65063-12.49933&#10;&#9;&#9;&#9;&#9;&#9;C629.39166,341.77139,639.08496,358.56049,639.08496,372.36722z"/><path fill="#FFFFFF" d="M614.2417,370.2735L614.2417,370.2735c-0.91852-0.53027-1.79968-1.46091-2.44922-2.58591&#10;&#9;&#9;&#9;&#9;&#9;l-7.90417-13.6911c-1.35321-2.34369-1.35321-4.87589,0-5.65607c1.35315-0.78122,3.547,0.48538,4.8985,2.82809l5.4549,9.44809&#10;&#9;&#9;&#9;&#9;&#9;l11.84021-6.83459c1.3515-0.78223,3.547,0.48538,4.8985,2.82809c1.35315,2.34268,1.35315,4.87592,0,5.6561l-14.28943,8.24951&#10;&#9;&#9;&#9;&#9;&#9;c-0.64948,0.37497-1.53076,0.28809-2.44916-0.24222H614.2417z"/></g><path opacity="0.1" d="M617.43414,334.86801c-11.9574-6.90369-21.65039-1.3074-21.65039,12.49881&#10;&#9;&#9;&#9;&#9;c0,13.80624,9.69299,30.5957,21.65039,37.49939s21.651,1.3074,21.651-12.49939S629.39154,341.77112,617.43414,334.86801z" enable-background="new"/><path fill="#DFDFDF" d="M820.24609,481.96286l-166.4646-96.10837c-2.39343-1.38181-4.33008-4.7363-4.33008-7.49988&#10;&#9;&#9;&#9;&#9;c0-2.76361,1.93671-3.88168,4.33008-2.49991l166.4646,96.1084c2.39337,1.38181,4.33002,4.7363,4.33002,7.49988&#10;&#9;&#9;&#9;&#9;C824.57611,482.22659,822.6394,483.34467,820.24609,481.96286z"/><path fill="#DFDFDF" d="M614.20844,405.21109l-8.5329-5.74982c-1.86505-1.25671-3.42285-0.35727-3.26709,1.88623&#10;&#9;&#9;&#9;&#9;l0.71301,10.26428c0.05951,0.8577,0.36969,1.80881,0.87573,2.68509l11.15839,19.32651&#10;&#9;&#9;&#9;&#9;c1.1817,2.04669,3.09735,3.15237,4.27869,2.47028l7.81995-4.5145c1.1817-0.68219,1.18195-2.89398,0.00031-4.94067&#10;&#9;&#9;&#9;&#9;l-11.15845-19.32654c-0.50598-0.87631-1.17456-1.62048-1.88757-2.10089L614.20844,405.21109z M609.01794,409.02319&#10;&#9;&#9;&#9;&#9;c-0.82257,0.47488-2.15662-0.29559-2.97919-1.7204c-0.82263-1.42477-0.82294-2.96518-0.00031-3.44009&#10;&#9;&#9;&#9;&#9;c0.82288-0.47507,2.15692,0.29541,2.97949,1.72021C609.84058,407.00769,609.84088,408.54813,609.01794,409.02319z"/><path fill="#DFDFDF" d="M615.26709,478.61481c-7.32819-4.23102-13.2948-14.56033-13.2948-23.02689&#10;&#9;&#9;&#9;&#9;c0-8.45682,5.96661-11.89651,13.2948-7.66562c7.33246,4.2334,13.29907,14.56281,13.29907,23.01962&#10;&#9;&#9;&#9;&#9;C628.56616,479.40842,622.59955,482.84818,615.26709,478.61481z M615.26709,449.91449&#10;&#9;&#9;&#9;&#9;c-6.37683-3.68158-11.5611-0.68869-11.5611,6.67441c0,7.36307,5.18427,16.35208,11.5611,20.03378&#10;&#9;&#9;&#9;&#9;c6.37677,3.6817,11.56525,0.6813,11.56525-6.6817c0-7.3631-5.18848-16.34479-11.56525-20.02652V449.91449z"/></g><g><g><path fill="#EFEFEF" d="M305.52301,318.7438L65.24293,180.01802c-3.8263-2.20909-6.9282-8.1358-6.9282-13.23761V7.29803&#10;&#9;&#9;&#9;&#9;&#9;c0-5.1018,3.1019-7.4467,6.9282-5.2376l240.28009,138.72578c3.82629,2.20911,6.92819,8.1358,6.92819,13.23761V313.5062&#10;&#9;&#9;&#9;&#9;&#9;C312.4512,318.608,309.3493,320.95291,305.52301,318.7438z"/><path fill="#DFDFDF" d="M305.52341,319.7446L65.24373,181.01901c-4.3005-2.48289-7.7976-8.535-7.7976-13.50558V5.55533&#10;&#9;&#9;&#9;&#9;&#9;c0-4.9608,3.4971-6.9748,7.7976-4.4919L305.5235,139.78902c4.29633,2.4805,7.79343,8.53259,7.79343,13.49339v161.9581&#10;&#9;&#9;&#9;&#9;&#9;c0,4.97058-3.4971,6.98459-7.79343,4.50409H305.52341z M65.24373,3.05553c-3.3449-1.9312-6.0639-0.3565-6.0639,3.5008v161.95808&#10;&#9;&#9;&#9;&#9;&#9;c0,3.8671,2.719,8.5813,6.0639,10.5125L305.5235,317.7525c3.34061,1.92868,6.05963,0.3541,6.05963-3.513V152.28142&#10;&#9;&#9;&#9;&#9;&#9;c0-3.8573-2.71902-8.57159-6.05963-10.50031L65.24373,3.05553z"/></g><g><path fill="#C6C6C6" d="M112.92802,68.59032c0,13.80669-9.6933,19.40279-21.6506,12.4993s-21.6506-23.69259-21.6506-37.49929&#10;&#9;&#9;&#9;&#9;&#9;s9.6933-19.4028,21.6506-12.4993S112.92802,54.78363,112.92802,68.59032z"/><path fill="#FFFFFF" d="M88.08482,66.49673L88.08482,66.49673c-0.9185-0.5303-1.7997-1.4609-2.4492-2.5859l-7.9042-13.6911&#10;&#9;&#9;&#9;&#9;&#9;c-1.3532-2.3437-1.3532-4.8759,0-5.6561c1.3532-0.7812,3.54699,0.4854,4.89849,2.8281l5.4549,9.4481l11.8402-6.8346&#10;&#9;&#9;&#9;&#9;&#9;c1.35149-0.7822,3.547,0.4854,4.8985,2.8281c1.3532,2.3427,1.3532,4.8759,0,5.6561l-14.2894,8.2495&#10;&#9;&#9;&#9;&#9;&#9;c-0.6495,0.375-1.5308,0.2881-2.4492-0.2422H88.08482z"/></g><path fill="#DFDFDF" d="M294.0892,178.18611L127.62462,82.07773c-2.3934-1.3818-4.3301-4.7363-4.3301-7.4999&#10;&#9;&#9;&#9;&#9;s1.9367-3.8817,4.3301-2.4999l166.46458,96.10838c2.3934,1.38181,4.33011,4.73631,4.33011,7.49991&#10;&#9;&#9;&#9;&#9;s-1.93671,3.8817-4.33011,2.49991V178.18611z"/><path fill="#DFDFDF" d="M88.05162,101.43432l-8.53291-5.74979c-1.8651-1.25671-3.4229-0.35731-3.2671,1.88619l0.713,10.2643&#10;&#9;&#9;&#9;&#9;c0.0595,0.8577,0.36971,1.8088,0.8757,2.6851l11.1584,19.32648c1.1817,2.04671,3.0974,3.1524,4.2787,2.47031l7.8199-4.5145&#10;&#9;&#9;&#9;&#9;c1.18169-0.6822,1.182-2.894,0.00029-4.9407l-11.15839-19.32649C89.43321,102.65891,88.76461,101.91471,88.05162,101.43432z&#10;&#9;&#9;&#9;&#9; M82.86102,105.24632c-0.8226,0.4749-2.1566-0.2956-2.97919-1.7204c-0.8226-1.4248-0.82291-2.9652-0.00031-3.4401&#10;&#9;&#9;&#9;&#9;c0.8229-0.47511,2.1569,0.29539,2.9795,1.7202C83.68362,103.23081,83.68392,104.77122,82.86102,105.24632z"/><path fill="#DFDFDF" d="M89.11012,174.83803c-7.3282-4.231-13.2948-14.5603-13.2948-23.0269&#10;&#9;&#9;&#9;&#9;c0-8.4568,5.96659-11.8965,13.2948-7.6656c7.3325,4.2334,13.2991,14.56281,13.2991,23.01959&#10;&#9;&#9;&#9;&#9;C102.40922,175.63161,96.44263,179.07143,89.11012,174.83803z M89.11012,146.13762&#10;&#9;&#9;&#9;&#9;c-6.3768-3.68161-11.5611-0.68871-11.5611,6.67441c0,7.36308,5.1843,16.3521,11.5611,20.03378&#10;&#9;&#9;&#9;&#9;c6.3768,3.6817,11.5653,0.6813,11.5653-6.6817C100.67542,158.80101,95.48692,149.81932,89.11012,146.13762z"/><path fill="#DFDFDF" d="M123.46362,194.67201c-7.32819-4.231-13.2948-14.5603-13.2948-23.02692&#10;&#9;&#9;&#9;&#9;c0-8.4568,5.96659-11.89648,13.2948-7.66559c7.33249,4.2334,13.2991,14.56279,13.2991,23.01959&#10;&#9;&#9;&#9;&#9;C136.76273,195.46559,130.79613,198.90541,123.46362,194.67201z M123.46362,165.97162&#10;&#9;&#9;&#9;&#9;c-6.3768-3.68161-11.5611-0.68871-11.5611,6.67441c0,7.3631,5.1843,16.3521,11.5611,20.0338&#10;&#9;&#9;&#9;&#9;c6.3768,3.68169,11.56531,0.6813,11.56531-6.6817c0-7.36308-5.18851-16.34479-11.56531-20.02649V165.97162z"/></g><g><g><path fill="#FFFFFF" d="M522.08636,589.09766L185.69421,394.88159c-5.3569-3.0928-9.69949-11.39011-9.69949-18.53259V153.07361&#10;&#9;&#9;&#9;&#9;&#9;c0-7.14249,4.34259-10.42538,9.69949-7.3326l336.39215,194.21608c5.35693,3.0928,9.69952,11.39011,9.69952,18.53259v223.27533&#10;&#9;&#9;&#9;&#9;&#9;C531.78589,588.90753,527.4433,592.19043,522.08636,589.09766L522.08636,589.09766z"/><path fill="#DFDFDF" d="M522.08777,590.49927L185.69608,396.28348c-6.02069-3.4761-10.9167-11.94907-10.9167-18.90781V150.63422&#10;&#9;&#9;&#9;&#9;&#9;c0-6.9451,4.89589-9.76479,10.9167-6.2887l336.39169,194.21576c6.01477,3.47272,10.91071,11.94562,10.91071,18.89069v226.74139&#10;&#9;&#9;&#9;&#9;&#9;c0,6.9588-4.89594,9.77838-10.91071,6.30579V590.49927z M185.69612,147.13452c-4.68282-2.7036-8.4894-0.49921-8.4894,4.90111&#10;&#9;&#9;&#9;&#9;&#9;v226.74138c0,5.41388,3.80658,12.01389,8.4894,14.71747l336.39172,194.21579c4.67688,2.7002,8.48346,0.49567,8.48346-4.91821&#10;&#9;&#9;&#9;&#9;&#9;V356.05063c0-5.40018-3.80658-12.00018-8.48346-14.70038L185.69612,147.13452z"/></g><g><path fill="#11B1D4" d="M252.45351,238.88281c0,19.32941-13.57059,27.164-30.3109,17.49902&#10;&#9;&#9;&#9;&#9;&#9;c-16.7403-9.66501-30.3109-33.1696-30.3109-52.49899s13.5706-27.164,30.3109-17.49901s30.3109,33.16959,30.3109,52.49901&#10;&#9;&#9;&#9;&#9;&#9;V238.88281z"/><path fill="#FFFFFF" d="M217.67291,235.95171L217.67291,235.95171c-1.2858-0.7424-2.51961-2.04532-3.42889-3.6203&#10;&#9;&#9;&#9;&#9;&#9;l-11.06581-19.1676c-1.89439-3.28119-1.89439-6.82619,0-7.91849c1.89439-1.09369,4.96581,0.67961,6.85779,3.95941&#10;&#9;&#9;&#9;&#9;&#9;l7.6369,13.22728l16.57631-9.56841c1.89211-1.09509,4.96579,0.67961,6.85779,3.95941c1.89439,3.2798,1.89439,6.82619,0,7.91849&#10;&#9;&#9;&#9;&#9;&#9;l-20.0052,11.5493c-0.90932,0.52501-2.1431,0.40332-3.42889-0.3391H217.67291z"/></g><path fill="#DFDFDF" d="M506.0799,392.31732L273.02942,257.7655c-3.3508-1.9346-6.06223-6.6308-6.06223-10.4998&#10;&#9;&#9;&#9;&#9;c0-3.86899,2.7114-5.43439,6.06223-3.49979l233.05048,134.5518c3.35077,1.93457,6.06219,6.63077,6.06219,10.49979&#10;&#9;&#9;&#9;&#9;S509.43066,394.25192,506.0799,392.31732z"/><path fill="#DFDFDF" d="M217.6264,284.86441l-11.94611-8.04968c-2.6111-1.7594-4.7921-0.50031-4.57399,2.64056l0.9982,14.37012&#10;&#9;&#9;&#9;&#9;c0.0834,1.20081,0.51759,2.53229,1.22589,3.75909l15.62169,27.0571c1.65431,2.8653,4.3363,4.4133,5.9902,3.45853l10.9478-6.32043&#10;&#9;&#9;&#9;&#9;c1.6543-0.95508,1.65471-4.0517,0.0004-6.91699l-15.62169-27.0571c-0.7083-1.2269-1.64441-2.26868-2.64259-2.94119H217.6264z&#10;&#9;&#9;&#9;&#9; M210.35971,290.2012c-1.15169,0.66492-3.0192-0.41379-4.17088-2.40851c-1.1517-1.99469-1.1521-4.15131-0.00041-4.81619&#10;&#9;&#9;&#9;&#9;c1.1521-0.6651,3.01961,0.4136,4.1713,2.40829C211.51141,287.37949,211.51181,289.5361,210.35971,290.2012L210.35971,290.2012z"/><path fill="#DFDFDF" d="M265.72092,312.63171L253.7748,304.582c-2.6111-1.7594-4.7921-0.50031-4.57399,2.64059l0.9982,14.37012&#10;&#9;&#9;&#9;&#9;c0.0834,1.20078,0.51759,2.53232,1.22589,3.75912l15.6217,27.0571c1.6543,2.8653,4.3363,4.4133,5.9902,3.45853l10.94778-6.32043&#10;&#9;&#9;&#9;&#9;c1.6543-0.95508,1.65469-4.0517,0.0004-6.91699l-15.6217-27.0571c-0.70828-1.2269-1.64438-2.26868-2.64258-2.94119&#10;&#9;&#9;&#9;&#9;L265.72092,312.63171z M258.45422,317.96851c-1.1517,0.66489-3.01921-0.41379-4.1709-2.40851&#10;&#9;&#9;&#9;&#9;c-1.1517-1.99469-1.1521-4.15131-0.00041-4.81619c1.1521-0.6651,3.01961,0.4136,4.17131,2.40829&#10;&#9;&#9;&#9;&#9;c1.15167,1.99466,1.1521,4.15131,0,4.81638V317.96851z"/><path fill="#DFDFDF" d="M219.1091,387.63c-10.25949-5.92331-18.61279-20.38449-18.61279-32.2377&#10;&#9;&#9;&#9;&#9;c0-11.83948,8.3533-16.65509,18.61279-10.73181c10.26541,5.92682,18.6187,20.38791,18.6187,32.22739&#10;&#9;&#9;&#9;&#9;c0,11.85324-8.35329,16.66882-18.6187,10.742V387.63z M219.1091,347.44949c-8.92749-5.1543-16.18549-0.96408-16.18549,9.34421&#10;&#9;&#9;&#9;&#9;c0,10.30832,7.258,22.89301,16.18549,28.0473c8.92751,5.1543,16.19151,0.95389,16.19151-9.3544&#10;&#9;&#9;&#9;&#9;C235.30061,365.17828,228.03661,352.60379,219.1091,347.44949z"/><path fill="#DFDFDF" d="M267.20401,415.39749c-10.25949-5.92331-18.61281-20.38449-18.61281-32.2377&#10;&#9;&#9;&#9;&#9;c0-11.83948,8.35332-16.65509,18.61281-10.73181s18.61279,20.38449,18.61279,32.224&#10;&#9;&#9;&#9;&#9;C285.8168,416.50519,277.4635,421.3208,267.20401,415.39749z M267.20401,375.2171&#10;&#9;&#9;&#9;&#9;c-8.92749-5.15433-16.1855-0.96411-16.1855,9.34421c0,10.30829,7.25801,22.89297,16.1855,28.04727&#10;&#9;&#9;&#9;&#9;c8.92749,5.15433,16.18549,0.95041,16.18549-9.35791C283.3895,392.94238,276.1315,380.3714,267.20401,375.2171z"/></g><g><path fill="#FFD0D2" d="M19.35003,324.92062c-6.6626,11.59659-3.1179,96.69046,13.5621,98.13449&#10;&#9;&#9;&#9;&#9;c11.3699,0.98428,5.5452-42.80283,10.62939-79.11572C48.75573,306.6976,26.01262,313.32401,19.35003,324.92062z"/><path fill="#11B1D4" d="M30.98173,420.90128c0,0-43.5574-24.41168-27.3794-43.07858&#10;&#9;&#9;&#9;&#9;c13.8706-16.00449,0.8108-78.62851,46.4202-78.62851c4.7803,0-5.052,111.7449-19.0408,121.70706L30.98173,420.90128z"/><path opacity="0.1" d="M22.47903,415.01651c-7.7679,1.11438-7.8152-72.89069,0.6558-70.73712&#10;&#9;&#9;&#9;&#9;C31.60582,346.43298,25.36323,414.60269,22.47903,415.01651z" enable-background="new"/><g><path opacity="0.05" d="M148.09692,910.69763c-16.912,9.76422-58.0425,1.84833-91.86749-17.68054&#10;&#9;&#9;&#9;&#9;&#9;c-33.825-19.52893-47.5357-43.27563-30.6237-53.03973c16.912-9.76416,58.04249-1.84827,91.86749,17.6806&#10;&#9;&#9;&#9;&#9;&#9;S165.00893,900.93353,148.09692,910.69763z" enable-background="new"/><g><path fill="#4A4C56" d="M120.13502,874.35852c-0.0135,0.01251-0.01779,0.03113-0.0266,0.0473l-10.80499,0.9375l7.533,2.77234&#10;&#9;&#9;&#9;&#9;&#9;&#9;c-13.6655,22.59131-25.8782,4.54785-27.4995,5.06659c-1.66819,0.53381-6.3025,12.82373-2.521,22.90784&#10;&#9;&#9;&#9;&#9;&#9;&#9;c0.8201,2.18683,0.7216,2.4599,2.1059,3.80707c0.0713,0.78174,0.2227,1.61603,0.5249,2.34222&#10;&#9;&#9;&#9;&#9;&#9;&#9;c0.8723,2.09485,7.0713,5.42218,13.0354,5.42218s17.1895-9.85767,17.1895-9.85767v-2.23248&#10;&#9;&#9;&#9;&#9;&#9;&#9;c5.2874-3.46704,10.5657-6.65814,12.9253-6.78833c4.64011-0.25598,27.3298-15.60083,27.3298-24.42456&#10;&#9;&#9;&#9;&#9;&#9;&#9;c0-8.82367-29.8027-9.25879-39.7917,0H120.13502z"/><path fill="#FFD6D6" d="M117.84692,877.99164l-8.0655-2.62653c0.0293-1.07391,0.05299-2.14752,0.09499-3.20007&#10;&#9;&#9;&#9;&#9;&#9;&#9;c0.3018-7.54083,3.5071-19.53058-3.4529-19.69434c-6.96-0.1637-16.1699-4.37201-16.686,17.13824&#10;&#9;&#9;&#9;&#9;&#9;&#9;c0,0-0.3135,13.41748,0,15.36108c0.31351,1.9436,3.4418,5.87805,14.853,5.87805c2.7268,0,6.2471-1.5592,6.2471-1.5592&#10;&#9;&#9;&#9;&#9;&#9;&#9;s7.77689-2.8913,10.5572-8.05457l-3.5479-3.24274V877.99164z"/></g><g><path fill="#4A4C56" d="M70.33002,842.69696c-0.0135,0.01251-0.0178,0.03113-0.0266,0.0473l-10.805,0.9375l7.533,2.77228&#10;&#9;&#9;&#9;&#9;&#9;&#9;c-13.6655,22.59131-25.8782,4.54785-27.4995,5.06659c-1.6682,0.53381-6.3025,12.82373-2.521,22.9079&#10;&#9;&#9;&#9;&#9;&#9;&#9;c0.8201,2.18677,0.7216,2.45984,2.1059,3.80707c0.0713,0.78168,0.2227,1.61597,0.5249,2.34222&#10;&#9;&#9;&#9;&#9;&#9;&#9;c0.8723,2.09479,7.0713,5.42212,13.0354,5.42212s17.1895-9.85767,17.1895-9.85767v-2.23248&#10;&#9;&#9;&#9;&#9;&#9;&#9;c5.2874-3.46704,10.5657-6.65808,12.9253-6.78833c4.6401-0.25598,27.3298-15.60083,27.3298-24.4245&#10;&#9;&#9;&#9;&#9;&#9;&#9;C110.12172,833.87323,80.31902,833.43811,70.33002,842.69696z"/><path fill="#FFD6D6" d="M68.04192,846.33008l-8.0655-2.62659c0.0293-1.07391,0.053-2.14752,0.095-3.20007&#10;&#9;&#9;&#9;&#9;&#9;&#9;c0.3018-7.54083,3.5071-19.53058-3.4529-19.69427c-6.96-0.16376-16.1699-4.37207-16.686,17.13818&#10;&#9;&#9;&#9;&#9;&#9;&#9;c0,0-0.3135,13.41754,0,15.36108c0.3135,1.9436,3.4418,5.87811,14.853,5.87811c2.7268,0,6.2471-1.55927,6.2471-1.55927&#10;&#9;&#9;&#9;&#9;&#9;&#9;s7.7769-2.8913,10.5572-8.05457l-3.5479-3.24274V846.33008z"/></g><path fill="#3B435A" d="M32.79183,478.7377c-15.3779,15.39767-13.1912,38.98898-6.8761,61.14816&#10;&#9;&#9;&#9;&#9;&#9;s68.30479-37.58649,68.30479-37.58649l-61.4287-23.56171L32.79183,478.7377z"/><path fill="#3B435A" d="M79.13142,651.31909c0,0-6.1714,103.53796-5.53181,179.70685&#10;&#9;&#9;&#9;&#9;&#9;c0.0363,4.31873-16.45549,18.3172-21.10929,18.52722c-5.6907,0.25684-20.733-4.89563-20.2896-12.91394&#10;&#9;&#9;&#9;&#9;&#9;c2.5434-45.99567-6.2504-150.06549-7.423-189.92279c-2.0163-68.53693,54.35369,4.60272,54.35369,4.60272L79.13142,651.31909z"/><path fill="#3B435A" d="M24.00843,502.7431c-0.5144,106.96399-7.3701,196.81842,27.7769,198.89758&#10;&#9;&#9;&#9;&#9;&#9;c45.1451,2.67059,27.8695-130.81732,32.58549-177.5116C90.79082,460.5632,24.14692,473.9548,24.00843,502.7431z"/><path opacity="0.1" fill="#1A1A1A" d="M75.19833,748.82257l-17.5006-181.69916&#10;&#9;&#9;&#9;&#9;&#9;c-3.8434-2.80164-8.1914-9.85535-12.6819-18.10986c0,0,6.9562,21.84644,11.1609,24.17731c0,0-0.2332,1.45197-0.376,2.64648&#10;&#9;&#9;&#9;&#9;&#9;c-3.9142,32.71674,9.4708,116.30609,19.39759,172.98517L75.19833,748.82257z" enable-background="new"/><path fill="#3B435A" d="M128.17961,680.23169c0,0-6.17139,107.67371-5.53179,183.84259&#10;&#9;&#9;&#9;&#9;&#9;c0.03629,4.31866-16.4555,14.18152-21.10929,14.39148c-5.6907,0.25677-20.73299-4.89563-20.2896-12.914&#10;&#9;&#9;&#9;&#9;&#9;c2.5434-45.99554-9.0312-135.00757-8.1496-174.87231c0.6862-31.02625,55.0803-10.44769,55.0803-10.44769L128.17961,680.23169z"/><path fill="#3B435A" d="M66.58942,528.54358c-0.5144,106.96399-0.9029,199.9306,34.244,202.00964&#10;&#9;&#9;&#9;&#9;&#9;c45.1451,2.67059,21.4023-133.92938,26.1184-180.62372c6.42001-63.56592-60.22389-50.17432-60.3624-21.38599V528.54358z"/></g><g><path fill="#11B1D4" d="M129.15942,470.47699c-1.4176-14.96283-5.2497-35.24481-10.5635-53.93552&#10;&#9;&#9;&#9;&#9;&#9;c-6.6579-23.4191,5.79079-49.06189,3.46429-74.4332c-0.038-0.41501-0.0689-0.83032-0.115-1.24564&#10;&#9;&#9;&#9;&#9;&#9;c-2.8659-25.77658-32.93491-31.84589-32.93491-31.84589l-38.98779-9.82269c0,0-22.8082,0.07352-26.7208,14.32681&#10;&#9;&#9;&#9;&#9;&#9;c-3.9129,14.2533-3.9818,57.3504-2.266,75.1832c1.7158,17.83279,1.6756,99.52768-2.508,128.52084&#10;&#9;&#9;&#9;&#9;&#9;c-1.4701,10.18823,59.819,28.83813,75.6927,27.58942c15.8738-1.24835,37.27329-13.01337,41.578-19.58356&#10;&#9;&#9;&#9;&#9;&#9;c1.7919-2.73523-5.62801-44.08218-6.6391-54.75391L129.15942,470.47699z"/><path opacity="0.1" d="M120.77402,348.36182c-14.3625,6.7554-29.92529,19.18307-29.0386,41.20071&#10;&#9;&#9;&#9;&#9;&#9;c1.1572,28.7355,18.697,67.81769,36.937,87.63116c-1.4176-14.9628-3.68741-39.8844-8.80471-53.95691&#10;&#9;&#9;&#9;&#9;&#9;C111.98941,401.5715,121.32622,374.01901,120.77402,348.36182z" enable-background="new"/></g><g><path fill="#FFCCCC" d="M71.45113,312.77969c6.8492,0.0098,16.5929-1.53958,20.6786-2.5632&#10;&#9;&#9;&#9;&#9;&#9;c-0.06441-0.4035-0.11031-0.84628-0.1305-1.34689c-0.2817-6.99432,9.0262-28.1871-1.2474-34.77899&#10;&#9;&#9;&#9;&#9;&#9;s-28.2992-6.86679-29.8147,5.20389c-1.339,10.66479-6.295,22.17099-6.9959,23.43509&#10;&#9;&#9;&#9;&#9;&#9;c2.8133,3.53082,9.0483,10.0379,17.50999,10.0502L71.45113,312.77969z"/><path fill="#FFCFD0" d="M112.16942,231.56831c1.9285,2.7885-0.89349,14.5416,0.5745,20.545&#10;&#9;&#9;&#9;&#9;&#9;c4.6379,18.96689,3.7263,44.56488-28.30199,45.5723c-31.2946,0.98431-32.7065-14.63159-33.6976-34.60608&#10;&#9;&#9;&#9;&#9;&#9;c-0.9911-19.97461-9.1724-29.14882,11.69-40.69461s41.6808-2.4626,49.73509,9.1835V231.56831z"/><path fill="#3C4358" d="M117.31911,233.89799c1.19341-21.8671-31.7608-30.54369-47.74999-28.74599&#10;&#9;&#9;&#9;&#9;&#9;c-6.4285,0.72281-21.972,5.28151-24.2407,14.35619c-26.4783,24.02341,3.6199,70.3951,22.3245,72.8979&#10;&#9;&#9;&#9;&#9;&#9;c8.0896,1.0824,17.08369-0.42523,21.6046-5.29611c0.63909-0.68869,3.4433-4.4848,2.51219-4.35901&#10;&#9;&#9;&#9;&#9;&#9;c-3.08739,0.41702-8.2561-2.77008-7.70319-13.64917c0.8848-17.4079,7.9577-8.91122,9.6336-5.8486&#10;&#9;&#9;&#9;&#9;&#9;c1.6759,3.06259,2.409,9.1619,2.409,9.1619l2.1263,3.45679l2.65299-9.97238c5.29391-6.49741,7.99281-11.2617,9.6754-17.70662&#10;&#9;&#9;&#9;&#9;&#9;c2.1814-6.45389,5.689-8.37289,6.7553-14.29478V233.89799z"/></g><path fill="#FFCCCC" d="M55.30462,300.9252c-0.9398,0.36948-2.9076,0.9928-2.553,2.4111&#10;&#9;&#9;&#9;&#9;c0.3546,1.4183,8.7351,9.54108,16.0509,10.2576s23.59589-0.61279,24.7202-2.11499&#10;&#9;&#9;&#9;&#9;c1.7093-2.28381-36.8352-11.09741-38.21809-10.5538L55.30462,300.9252z"/><path fill="#FFD3D4" d="M190.71092,386.37219c11.194-2.38611,37.3629-123.375,24.71429-125.55722&#10;&#9;&#9;&#9;&#9;c-7.8904-1.3613-38.60069,81.68369-37.4697,103.6694C179.08653,386.47006,190.71092,386.37219,190.71092,386.37219z"/><path fill="#FFD3D4" d="M120.39932,371.93869c-4.2419,12.68372,51.66188,17.11234,68.29869,15.23474&#10;&#9;&#9;&#9;&#9;c11.34041-1.27991-5.02019-28.7338-42.84758-29.30969c-37.8243-0.57581-21.2091,1.3913-25.4511,14.07501L120.39932,371.93869z"/><path fill="#11B1D4" d="M103.07903,314.51581c-0.4893-1.34232,29.20349,15.54758,35.05721,26.10159&#10;&#9;&#9;&#9;&#9;c5.0638,9.12991,34.32079-1.08182,35.96748,26.26599c0.77431,12.8584,3.11519,19.66449,2.43231,27.2655&#10;&#9;&#9;&#9;&#9;c0,0,5.1427,14.28372-12.0755,24.82651c0,0-69.81699-6.89011-73.23049-47.03659c0,0,12.6524-55.21899,11.84889-57.42288&#10;&#9;&#9;&#9;&#9;L103.07903,314.51581z"/><path fill="#FFD3D4" d="M207.65971,270.28979c-5.25191-7.83179-5.63361-21.07649-1.6716-22.4586&#10;&#9;&#9;&#9;&#9;c3.96201-1.3821,3.23799,9.2827,3.23799,9.2827s3.65459-23.40347,12.9606-22.38989s3.2345,26.3403,1.48381,31.40799&#10;&#9;&#9;&#9;&#9;c-1.7507,5.06772-8.54759,6.922-11.49602,6.922c-2.94841,0-4.5148-2.76419-4.5148-2.76419H207.65971z"/></g></g></g></svg>