<svg xmlns="http://www.w3.org/2000/svg" xmlns:xlink="http://www.w3.org/1999/xlink" version="1.1" id="_レイヤー_2" x="0px" y="0px" viewBox="0 0 506.77768 890.9411" enable-background="new 0 0 506.77768 890.9411" width="507px" height="891px" class="lg:!max-h-[405px] isometric rectangleModalImage" role="img" aria-label="考える女性1(上半身) アイソメトリック イラスト"><title>考える女性1(上半身) アイソメトリック イラスト</title><g id="_女性_上半身_"><g><path fill="#FFD3D4" d="M83.88991,384.0527C56.932,428.01849-1.51629,709.24268,44.05811,711.84381&#10;&#9;&#9;&#9;s103.6234-113.94989,124.9416-252.47263C190.86311,317.30536,110.84782,340.08691,83.88991,384.0527z"/><path fill="#11B1D4" d="M208.08411,324.4888c-28.87149,5.50418-111.8879,23.77011-137.7505,55.49487&#10;&#9;&#9;&#9;c-42.056,51.58859-53.7477,229.43082-50.571,233.33353c2.8077,3.44952,42.4686,36.54547,72.5807,35.86737&#10;&#9;&#9;&#9;c81.64931-1.83862,115.7408-324.6958,115.7408-324.6958V324.4888z"/><path opacity="0.1" d="M119.3711,438.48178c0,0-22.02731,23.62332-32.2383,43.79343&#10;&#9;&#9;&#9;c-26.9181,53.17181-20.7164,139.09149,33.619,162.63678c54.3353,23.54529-1.3807-206.43011-1.3807-206.43011V438.48178z" enable-background="new"/><path fill="#FFD3D4" d="M86.618,651.6427c16.7561,8.28418,38.2957,31.14319,30.9832,60.2146&#10;&#9;&#9;&#9;c-7.5933,30.1875-57.668,25.85571-67.0711,21.09143c-58.6082-29.69397-52.0277-46.12451-48.0882-71.22028&#10;&#9;&#9;&#9;s49.3015-27.32788,84.17619-10.08588L86.618,651.6427z"/><path fill="#11B1D4" d="M122.3605,765.00366c8.21479,5.09772,16.4551,10.09772,24.7461,14.88477&#10;&#9;&#9;&#9;c103.63089,59.83014,201.58112,88.36523,288.53122,88.78522c-1.21478-14.85553-1.33398-32.98444,0.32132-55.64655&#10;&#9;&#9;&#9;c3.68069-50.44135,37.1152-223.49219,37.9541-239.21088c1.8848-35.31641,0.793-64.00977-6.6777-91.54099&#10;&#9;&#9;&#9;c-5.93948-21.8848-16.39261-44.90231-34.543-66.22269c-39.6777-46.6055-112.8262-94.52728-209.8477-93.0957&#10;&#9;&#9;&#9;c-97.23051,1.43359-142.37601,162.96869-141.25391,225.88092c0.96481,54.12695,50.1602,63.4668,40.7695,216.16595&#10;&#9;&#9;&#9;L122.3605,765.00366z"/><path opacity="0.1" d="M349.05472,554.67157&#10;&#9;&#9;&#9;c-18.47409,142.21246-9.29099,272.35553,86.69141,315.4278c-1.3252-15.10944-1.49411-33.69531,0.21289-57.07233&#10;&#9;&#9;&#9;c3.68069-50.44147,37.1152-223.49219,37.9541-239.21088c1.8848-35.31641,0.793-64.0098-6.6777-91.54102&#10;&#9;&#9;&#9;c-41.9736,11.4375-113.38629,35.48987-118.18069,72.39655V554.67157z" enable-background="new"/><path fill="#FFD3D4" d="M465.64679,491.8248c26.65057,46.3862,11.6669,395.25681-33.93552,397.33621&#10;&#9;&#9;&#9;c-45.60242,2.07935-46.98911-171.14587-67.3259-316.39771c-20.8569-148.96698,74.61078-127.32471,101.26129-80.93851H465.64679z"/><path fill="#FFD3D4" d="M437.22742,885.52032C398.1116,926.85754,52.4577,719.11981,65.47951,690.60492&#10;&#9;&#9;&#9;c11.6634-25.54034,286.36139,81.9278,348.33807,127.95471s23.40988,66.96069,23.40988,66.96069H437.22742z"/><path fill="#11B1D4" d="M342.3624,584.60229c9.2197,18.75024,1.7489,130.03583,39.34793,145.16919&#10;&#9;&#9;&#9;c48.8811,19.67438,125.06738-33.03613,125.06738-33.03613s-15.0957-173.02686-27.95007-205.39325&#10;&#9;&#9;&#9;c-11.64682-29.32581-59.3905-94.66693-75.03659-102.74924s-89.54941,138.81998-61.42862,196.00943H342.3624z"/><path fill="#FFC9CA" d="M267.6842,328.8526c-28.27922-3.61307-54.83821-3.54196-65.17751,3.20203&#10;&#9;&#9;&#9;c-10.33931,6.74402-61.51001,95.13983-3.2247,108.89279c52.46959,12.3808,123.93422-53.05148,125.12309-75.6618&#10;&#9;&#9;&#9;c1.1889-22.61029-12.50931-30.7843-56.72089-36.43311V328.8526z"/><path fill="#FFC9CA" d="M219.65851,292.47089c-6.5316,29.73703-22.8183,63.26889,0,73.64081&#10;&#9;&#9;&#9;c22.8183,10.37189,99.0892,5.08218,95.44019-16.60803c-2.05899-12.23868,4.16272-66.36749-2.59518-72.5907&#10;&#9;&#9;&#9;S219.65851,292.47089,219.65851,292.47089L219.65851,292.47089z"/><path fill="#3C4358" d="M216.0425,110.3658c-7.0204,18.37061-51.58141,41.11081-63.8443,47.7435&#10;&#9;&#9;&#9;c-38.1402,20.62901-50.4902,53.29311-3.028,64.21231c0,0-83.85709-10.01721-11.97729-70.30341&#10;&#9;&#9;&#9;c71.8799-60.28619,38.1479-95.533,38.1479-95.533S216.0425,110.36581,216.0425,110.3658z"/><path fill="#3C4358" d="M373.4473,164.86771c0,0,58.64441,101.19629,13.37912,133.83011s-72.67801-26.2944-72.67801-26.2944&#10;&#9;&#9;&#9;l59.29889-107.5358V164.86771z"/><path fill="#FFD3D4" d="M161.3335,90.8482c-38.56499,75.3574-41.16279,165.966,19.8381,201.29938&#10;&#9;&#9;&#9;c73.25131,42.4292,179.21042,2.54492,217.77539-72.81248s19.48508-144.4502-55.87231-183.0152&#10;&#9;&#9;&#9;C267.71732-2.2449,199.8985,15.4909,161.3335,90.8482z"/><path fill="#3C4358" d="M141.2809,136.7245c-1.8616,6.8391,25.2419-48.5135,36.35651-53.9893&#10;&#9;&#9;&#9;c-0.57289,19.39249,21.1693,33.11659,34.72731,56.6967c29.73419,51.71129,112.9357,77.26369,122.08398,70.6559&#10;&#9;&#9;&#9;c0,0,33.44022-42.50461,45.1962-26.61061c10.28729,13.90779-14.32123,72.99211-23.40582,75.75349&#10;&#9;&#9;&#9;c-9.08456,2.76141-7.87158-3.47139-10.64557-0.61359c-24.77731,25.52661-19.30341,31.34671-19.30341,31.34671&#10;&#9;&#9;&#9;s51.08749-12.06512,96.11099-100.9818c72.61328-143.40649-209.62021-314.9361-281.1203-52.2576L141.2809,136.7245z"/><path fill="#3C4358" d="M178.85611,91.3308c0,0,26.58701,94.8345,90.7092,114.5992c0,0-40.83299-28.6077-40.66409-69.10602&#10;&#9;&#9;&#9;c0.0679-16.26749-50.04509-45.49319-50.04509-45.49319L178.85611,91.3308z"/><path fill="#3C4358" d="M278.28558,170.2124c-4.58118,19.12529,19.35062,63.05789,25.72491,75.45709&#10;&#9;&#9;&#9;c19.82523,38.56409,11.5701,72.49521-33.7652,54.7019c0,0,74.86121,39.0918,49.58841-51.2543&#10;&#9;&#9;&#9;c-25.27283-90.34612,22.47061-100.38371,22.47061-100.38371l-64.01874,21.4791V170.2124z"/><path fill="#FFD3D4" d="M36.1066,707.92871C-9.24,673.97406,156.7144,326.01569,186.40039,336.08557&#10;&#9;&#9;&#9;c26.5894,9.01959-48.31169,280.73083-86.7494,343.85474s-63.5444,27.98846-63.5444,27.98846L36.1066,707.92871z"/><path fill="#FFD3D4" d="M223.0123,367.51898c-7.4593,17.29071-36.77251,38.93719-66.40262,33.09882&#10;&#9;&#9;&#9;c-30.76769-6.0625-33.78499-51.71527-30.7007-61.87723c20.9742-69.10449,54.2355-46.52451,79.26891-39.16348&#10;&#9;&#9;&#9;c24.55249,7.2196,33.35948,31.95453,17.83449,67.94189H223.0123z"/></g></g></svg>