<svg xmlns="http://www.w3.org/2000/svg" xmlns:xlink="http://www.w3.org/1999/xlink" version="1.1" id="_レイヤー_2" x="0px" y="0px" viewBox="0 0 1018.36456 3050.73926" enable-background="new 0 0 1018.36456 3050.73926" width="1018px" height="3051px" class="lg:!max-h-[405px] isometric rectangleModalImage" role="img" aria-label="考える男性2(背面) アイソメトリック イラスト"><title>考える男性2(背面) アイソメトリック イラスト</title><g id="_男性"><g><g><g><g><path fill="#FFD3D4" d="M38.20319,660.89178c-26.6506,46.38623-37.2799,386.69672,29.4402,392.47296&#10;&#9;&#9;&#9;&#9;&#9;&#9;c45.4796,3.93738,46.98909-171.14587,67.32588-316.39764C155.82617,588.00012,64.85378,614.50562,38.20319,660.89178z"/><path fill="#FFD3D4" d="M126.23068,942.35229c23.6133-51.78064,463.5842,124.61987,462.1752,155.93567&#10;&#9;&#9;&#9;&#9;&#9;&#9;c-1.81213,40.27405-344.7879-76.70648-418.33368-100.1712c-73.54578-23.46478-43.84148-55.76447-43.84148-55.76447H126.23068z"/></g><path fill="#11B1D4" d="M75.75778,1063.69788c0,0-89.83899-120.44318-73.85159-195.14722&#10;&#9;&#9;&#9;&#9;&#9;c17.7283-82.83899-32.4226-291.68109,150.01498-291.68109c19.12131,0-20.2081,446.97949-76.16329,486.82831H75.75778z"/><path opacity="0.1" d="M44.98749,1005.98309c-31.0714,4.4577-34.48669-257.35516-0.6027-248.7406&#10;&#9;&#9;&#9;&#9;&#9;C78.26879,765.85712,56.52429,1004.328,44.98749,1005.98309z" enable-background="new"/></g><g><ellipse transform="matrix(0.39156 -0.92015 0.92015 0.39156 -2469.30103 2028.53247)" opacity="0.05" cx="299.23596" cy="2881.44238" rx="118.09968" ry="293.39139" enable-background="new"/><g><path fill="#4A4C56" d="M432.37097,2877.5271c-0.05402,0.05005-0.07132,0.12451-0.10641,0.18921l-43.21988,3.75049&#10;&#9;&#9;&#9;&#9;&#9;&#9;l30.13196,11.08911c-54.66208,90.36523-103.51266,18.19141-109.99799,20.26636&#10;&#9;&#9;&#9;&#9;&#9;&#9;c-6.67288,2.13501-25.20999,51.29468-10.08398,91.63159c3.2803,8.74707,2.88638,9.83936,8.42349,15.22827&#10;&#9;&#9;&#9;&#9;&#9;&#9;c0.28522,3.12695,0.89059,6.46387,2.09961,9.36841c3.48932,8.37964,28.28531,21.68823,52.14169,21.68823&#10;&#9;&#9;&#9;&#9;&#9;&#9;c23.85641,0,68.75803-39.43042,68.75803-39.43042v-8.92969c21.14938-13.86792,42.26266-26.63281,51.70117-27.15332&#10;&#9;&#9;&#9;&#9;&#9;&#9;c18.56049-1.02417,109.31931-62.40308,109.31931-97.69824C591.53796,2842.23218,472.32718,2840.49194,432.37097,2877.5271z"/><path fill="#FFD6D6" d="M423.21854,2892.05957l-32.26178-10.5061c0.11719-4.29541,0.21188-8.58984,0.37988-12.80029&#10;&#9;&#9;&#9;&#9;&#9;&#9;c1.20703-30.16333,14.02829-78.12231-13.81149-78.77734c-27.83975-0.65479-64.6796-17.48804-66.74399,68.55298&#10;&#9;&#9;&#9;&#9;&#9;&#9;c0,0-1.25388,53.66992,0,61.44458c1.25391,7.77466,13.7673,23.51245,59.4118,23.51245&#10;&#9;&#9;&#9;&#9;&#9;&#9;c10.90723,0,24.98828-6.23706,24.98828-6.23706s31.10773-11.56519,42.22882-32.21851l-14.19141-12.9707H423.21854z"/></g><g><path fill="#4A4C56" d="M233.15097,2750.88086c-0.054,0.05005-0.07129,0.12451-0.10638,0.18921l-43.21991,3.75024&#10;&#9;&#9;&#9;&#9;&#9;&#9;l30.132,11.08911c-54.66209,90.36523-103.51269,18.19165-109.99799,20.26636c-6.6729,2.13501-25.21,51.29468-10.084,91.63159&#10;&#9;&#9;&#9;&#9;&#9;&#9;c3.2803,8.74731,2.8864,9.83936,8.4235,15.22827c0.28519,3.1272,0.89059,6.46387,2.09959,9.36865&#10;&#9;&#9;&#9;&#9;&#9;&#9;c3.4893,8.37939,28.2853,21.68823,52.14169,21.68823s68.75801-39.43066,68.75801-39.43066v-8.92969&#10;&#9;&#9;&#9;&#9;&#9;&#9;c21.1494-13.86792,42.2627-26.63281,51.7012-27.15332c18.56049-1.02417,109.31931-62.40308,109.31931-97.698&#10;&#9;&#9;&#9;&#9;&#9;&#9;c0-35.29517-119.21078-37.0354-159.16701,0H233.15097z"/><path fill="#FFD6D6" d="M223.99858,2765.41284l-32.2618-10.5061c0.11722-4.29541,0.21191-8.58984,0.37991-12.80029&#10;&#9;&#9;&#9;&#9;&#9;&#9;c1.207-30.16333,14.02829-78.12231-13.81149-78.77734c-27.8398-0.65479-64.6796-17.48804-66.744,68.55298&#10;&#9;&#9;&#9;&#9;&#9;&#9;c0,0-1.25391,53.66992,0,61.44458c1.2539,7.77466,13.7673,23.51245,59.4118,23.51245&#10;&#9;&#9;&#9;&#9;&#9;&#9;c10.9072,0,24.98831-6.23706,24.98831-6.23706s31.1077-11.56519,42.22879-32.21851l-14.19139-12.9707H223.99858z"/></g><path fill="#4F5056" d="M82.99809,1295.0437c-61.5116,61.5907-52.7647,155.95593-27.5043,244.59265&#10;&#9;&#9;&#9;&#9;&#9;c25.2604,88.63684,273.21896-150.34607,273.21896-150.34607S82.99807,1295.0437,82.99809,1295.0437z"/><path fill="#3C4358" d="M268.35657,1985.36902c0,0-24.68541,414.15198-22.1273,718.82751&#10;&#9;&#9;&#9;&#9;&#9;c0.14499,17.27466-65.82179,73.2688-84.43701,74.10889c-22.76289,1.0271-82.93198-19.58252-81.15839-51.65625&#10;&#9;&#9;&#9;&#9;&#9;c10.1738-183.98242-25.00169-600.26196-29.692-759.69104c-8.0653-274.14758,217.41479,18.41064,217.41479,18.41064&#10;&#9;&#9;&#9;&#9;&#9;L268.35657,1985.36902z"/><path fill="#3C4358" d="M47.86449,1391.06519c-2.0578,427.8562-29.4804,787.27344,111.1075,795.59009&#10;&#9;&#9;&#9;&#9;&#9;c180.58038,10.68237,111.478-523.26892,130.34207-710.04626C314.99417,1222.34558,48.41829,1275.91187,47.86449,1391.06519z"/><path opacity="0.1" fill="#1A1A1A" d="M252.62396,2375.38281l-70.0024-726.79651&#10;&#9;&#9;&#9;&#9;&#9;c-15.37349-11.20642-32.76549-39.42114-50.72749-72.43933c0,0,27.82469,87.38562,44.64359,96.70935&#10;&#9;&#9;&#9;&#9;&#9;c0,0-0.93259,5.80811-1.50391,10.58594c-15.65669,130.8667,37.8833,465.22449,77.59029,691.9408L252.62396,2375.38281z" enable-background="new"/><path fill="#3C4358" d="M464.54904,2101.01953c0,0-24.68539,430.69482-22.12732,735.37036&#10;&#9;&#9;&#9;&#9;&#9;c0.14502,17.27466-65.82178,56.72607-84.43698,57.56616c-22.76291,1.0271-82.93198-19.58252-81.15839-51.65625&#10;&#9;&#9;&#9;&#9;&#9;c10.1738-183.98218-36.12489-540.03052-32.59831-699.4895c2.74471-124.10486,220.32112-41.79077,220.32112-41.79077H464.54904z"/><path fill="#3C4358" d="M218.18837,1494.26709c-2.0578,427.85608-3.61169,799.72217,136.97618,808.03882&#10;&#9;&#9;&#9;&#9;&#9;c180.58038,10.68237,85.60928-535.71765,104.47342-722.495C485.31802,1325.54749,218.74217,1379.11377,218.18837,1494.26709z"/></g><g><path fill="#11B1D4" d="M468.46832,1262.00073c-5.67038-59.85095-20.99869-140.97925-42.25397-215.74194&#10;&#9;&#9;&#9;&#9;&#9;c-26.63159-93.67639,23.16309-196.24774,13.85712-297.7326c-0.15179-1.6601-0.27539-3.32135-0.45981-4.98224&#10;&#9;&#9;&#9;&#9;&#9;c-11.4635-103.10626-131.73947-127.38361-131.73947-127.38361L151.9212,576.86945c0,0-91.2327,0.29413-106.88319,57.30719&#10;&#9;&#9;&#9;&#9;&#9;c-15.6515,57.01318-15.9271,229.40179-9.0642,300.73285c6.863,71.33118,6.7026,398.1109-10.0319,514.08344&#10;&#9;&#9;&#9;&#9;&#9;c-5.8805,40.75293,239.27586,115.35217,302.7709,110.35767c63.49509-4.99341,149.0932-52.05371,166.31189-78.33435&#10;&#9;&#9;&#9;&#9;&#9;c7.16757-10.94067-22.51202-176.32898-26.55621-219.01562L468.46832,1262.00073z"/><path opacity="0.1" d="M434.92697,773.53992&#10;&#9;&#9;&#9;&#9;&#9;c-57.4498,27.02142-119.7012,76.73236-116.15439,164.80267c4.62888,114.9422,74.78796,271.27069,147.74786,350.52496&#10;&#9;&#9;&#9;&#9;&#9;c-5.67041-59.85107-14.74973-159.53772-35.21872-215.82751c-31.51318-86.66138,5.83389-196.87109,3.62518-299.50012H434.92697z" enable-background="new"/><g><g><path fill="#FFD3D4" d="M311.68896,765.95636c5.69598,53.19293,212.38812,365.44989,269.76648,330.91486&#10;&#9;&#9;&#9;&#9;&#9;&#9;&#9;c39.11176-23.54065-64.49683-208.42847-133.40063-337.90399c-70.66617-132.78729-142.06189-46.2038-136.36588,6.9892&#10;&#9;&#9;&#9;&#9;&#9;&#9;&#9;L311.68896,765.95636z"/><path fill="#FFCCCC" d="M584.94165,1089.38538c44.60669-35.34204-138.733-497.97522-181.3316-483.4422&#10;&#9;&#9;&#9;&#9;&#9;&#9;&#9;c-26.57358,9.06586,76.263,388.48096,116.68042,454.25336c40.41748,65.77234,64.65106,29.18884,64.65106,29.18884H584.94165z"/><path fill="#FFD3D4" d="M543.11212,1110.3501c-4.5871-4.3606-2.89166-9.85583-0.79071-13.31836&#10;&#9;&#9;&#9;&#9;&#9;&#9;&#9;c12.25964-20.20471,23.85638,5.78735,18.93951-26.74158c-2.47845-16.39673,38.19592-20.9729,44.38184-7.99792&#10;&#9;&#9;&#9;&#9;&#9;&#9;&#9;c6.18585,12.97498,12.73578,40.62976-9.46094,47.54346c-22.19672,6.91357-49.11377,4.27515-53.06976,0.51453&#10;&#9;&#9;&#9;&#9;&#9;&#9;&#9;L543.11212,1110.3501z"/><path fill="#FFCCCC" d="M359.48947,612.84851c7.17126,18.41302,29.24768,43.21387,60.53958,38.20703&#10;&#9;&#9;&#9;&#9;&#9;&#9;&#9;c32.49329-5.19922,31.2775-57.90411,28.42569-68.67657c-19.39331-73.25723-39.16129-59.0907-65.95401-57.2674&#10;&#9;&#9;&#9;&#9;&#9;&#9;&#9;c-26.79269,1.8233-37.93701,49.4137-23.0112,87.737L359.48947,612.84851z"/></g><path fill="#11B1D4" d="M360.05756,635.78534c-1.95721-5.36896,98.0672,64.8501,121.48169,107.0661&#10;&#9;&#9;&#9;&#9;&#9;&#9;c20.25507,36.51959,65.52765,45.47339,72.11469,154.86456c3.09711,51.43353,43.48572,68.91858,40.75439,99.32257&#10;&#9;&#9;&#9;&#9;&#9;&#9;c0,0-67.59204,142.74329-183.43079,94.67761c0,0-110.3143-228.65338-126.32889-323.85144&#10;&#9;&#9;&#9;&#9;&#9;&#9;c0,0,78.6225-123.26361,75.40878-132.07947L360.05756,635.78534z"/></g></g><g><path fill="#FFCCCC" d="M237.63516,631.21143c27.39679,0.03925,66.3718-6.15839,82.71439-10.25287&#10;&#9;&#9;&#9;&#9;&#9;c-0.25748-1.61401-0.44128-3.38544-0.52188-5.3877c-1.12671-27.97729,36.10458-112.74841-4.98972-139.11621&#10;&#9;&#9;&#9;&#9;&#9;s-113.19687-27.46732-119.259,20.8158c-5.35609,42.6593-25.18008,88.6839-27.9838,93.7403&#10;&#9;&#9;&#9;&#9;&#9;c11.2532,14.12311,36.19319,40.15155,70.0399,40.20068H237.63516z"/><path fill="#F7D3D2" d="M373.06677,305.16846c8.92899,10.20743,3.04428,58.19672,11.60117,81.38959&#10;&#9;&#9;&#9;&#9;&#9;c27.0343,73.2749,35.0213,175.4198-91.80887,193.94977c-123.9245,18.10541-136.61839-43.315-149.61668-122.24847&#10;&#9;&#9;&#9;&#9;&#9;c-12.99831-78.93347-49.6733-111.68317,28.00169-167.03076C248.91908,235.88107,335.77527,262.53757,373.06677,305.16846z"/><path fill="#3E4354" d="M380.22565,312.09158c-5.17477-87.4455-125.67468-106.81281-188.44228-92.58591&#10;&#9;&#9;&#9;&#9;&#9;c-33.8838,7.68008-89.17909,49.89578-94.0795,86.98969c-94.3344,107.48291,36.2034,259.18176,111.67441,260.64502&#10;&#9;&#9;&#9;&#9;&#9;c32.6407,0.63275,67.7014-9.43793,83.45897-30.8465c2.22772-3.02679,11.6503-19.38507,8.00681-18.46289&#10;&#9;&#9;&#9;&#9;&#9;c-12.08078,3.05762-34.06787-7.26459-36.80438-50.7511c-4.37878-69.58401,27.58371-39.02411,35.6333-27.61282&#10;&#9;&#9;&#9;&#9;&#9;c8.04959,11.41141,13.7291,35.31851,13.7291,35.31851l10.0181,12.77368l6.02081-40.8356&#10;&#9;&#9;&#9;&#9;&#9;c18.0921-28.22318,26.65741-48.38159,30.4212-74.758c5.74243-26.6384,18.81192-35.85577,20.36353-59.87418L380.22565,312.09158z"/></g><path fill="#FFCCCC" d="M173.04927,583.79382c-3.75931,1.47791-11.63019,3.97131-10.2119,9.64459&#10;&#9;&#9;&#9;&#9;c1.41829,5.67334,34.9404,38.16443,64.20349,41.0304s94.38367-2.45111,98.88089-8.4599&#10;&#9;&#9;&#9;&#9;C332.75885,616.87354,178.58109,581.61926,173.04927,583.79382L173.04927,583.79382z"/></g><g><g><path fill="#E5E5E5" d="M620.27386,450.09537c21.39679-8.01492,53.37079,14.22949,44.53143,24.53281&#10;&#9;&#9;&#9;&#9;&#9;c-7.79254,9.08347-55.06659,17.93048-62.21796,3.18329c-4.06659-8.38611,5.45599-23.13467,17.68646-27.71622&#10;&#9;&#9;&#9;&#9;&#9;L620.27386,450.09537z"/><path fill="#E5E5E5" d="M686.88281,368.87268c27.84943-16.8584,61.84021-4.67639,84.2735,7.13379&#10;&#9;&#9;&#9;&#9;&#9;c6.26831,3.30011,41.2334,21.70792,27.60632,39.47897c-15.49554,20.20773-80.11981,40.65924-114.13629,20.98273&#10;&#9;&#9;&#9;&#9;&#9;c-26.15881-15.13144-23.29962-52.12521,2.25647-67.59552V368.87268z"/><path fill="#E5E5E5" d="M863.00507,378.83316c11.02545,6.5314,72.52649,42.9642,83.15979,16.75061&#10;&#9;&#9;&#9;&#9;&#9;c3.03455-7.48071,1.93903-20.10941-2.3822-35.37241c2.82733,0.84451,5.63971,1.5657,8.41333,2.02771&#10;&#9;&#9;&#9;&#9;&#9;c45.13458,7.51678,77.4245-38.45639,62.46753-81.14429c-6.00952-17.15161-19.11914-32.22969-35.14697-44.83389&#10;&#9;&#9;&#9;&#9;&#9;c0.47827-9.6669-0.46259-19.86-3.14056-30.40271C961.72546,148.1812,898.97729,89.57091,854.42834,66.0575&#10;&#9;&#9;&#9;&#9;&#9;c-11.4989-6.0691-36.60101-17.61-62.96417-15.1223c-1.59497-2.9697-3.3125-5.8525-5.17438-8.6125&#10;&#9;&#9;&#9;&#9;&#9;c-24.24744-35.94199-67.44366-46.7885-92.28564-40.7449c-6.86475,1.6702-21.79651,6.9335-31.21429,25.8558&#10;&#9;&#9;&#9;&#9;&#9;c-1.39398,2.801-22.60437,47.4378,2.71442,95.59c8.41626,16.0063,20.34363,29.18379,33.50922,39.18478&#10;&#9;&#9;&#9;&#9;&#9;c-11.11584,17.24559-16.24414,44.82249-2.37866,73.8447c14.75275,30.87929,48.77228,58.71739,63.82983,52.6454&#10;&#9;&#9;&#9;&#9;&#9;c1.07751-0.43433,2.02948-1.10431,2.92615-1.87561C785.67072,323.31067,832.56781,360.80246,863.00507,378.83316z"/></g><path fill="#FFFFFF" d="M883.32526,191.60008c0,26.8976-11.74207,29.9599-20.26703,32.47328&#10;&#9;&#9;&#9;&#9;c-7.57428,1.9686-12.12097,3.27901-12.12097,19.68091c0,6.99779-4.92206,9.8414-10.98425,6.3414&#10;&#9;&#9;&#9;&#9;c-6.05878-3.498-10.98425-12.02721-10.98425-19.02501c0-29.30379,12.12097-32.80161,21.02478-35.0963&#10;&#9;&#9;&#9;&#9;c7.38489-1.85921,11.36322-3.06218,11.36322-17.05789c0-6.56039-3.97827-20.228-18.75153-28.75729&#10;&#9;&#9;&#9;&#9;c-15.34149-8.85741-18.74811,3.82768-18.74811,9.51309c0,6.9978-4.92554,9.83951-10.98425,6.34138&#10;&#9;&#9;&#9;&#9;c-6.06219-3.5-10.98425-12.02719-10.98425-19.02499c0-22.5247,15.14868-36.95959,40.71667-22.19789&#10;&#9;&#9;&#9;&#9;c15.53094,8.9668,25.18921,21.9783,30.30414,31.27299c6.62708,11.69901,10.41602,24.8217,10.41602,35.53619L883.32526,191.60008z&#10;&#9;&#9;&#9;&#9; M851.88452,282.35275c-0.18939,7.32599-5.30096,9.8414-11.93152,6.01331c-6.43768-3.7168-11.74207-12.24591-11.74207-19.6813&#10;&#9;&#9;&#9;&#9;c0-7.4353,5.30438-9.8414,11.74207-6.12457C846.5835,266.38828,851.69513,274.80807,851.88452,282.35275z"/></g></g></g></svg>